/* XPM */
static char *collectible[] = {
/* columns rows colors chars-per-pixel */
"64 64 58 1 ",
"  c #171F4A",
". c #17215E",
"X c #292155",
"o c #1E2975",
"O c #3E3665",
"+ c #513F58",
"@ c #7B7076",
"# c #A07559",
"$ c #84586A",
"% c #907469",
"& c #528525",
"* c #558B26",
"= c #588D26",
"- c #558529",
"; c #588E29",
": c #5A9127",
"> c #5F992B",
", c #60962D",
"< c #629C2C",
"1 c #659D31",
"2 c #66A22D",
"3 c #69A42F",
"4 c #66A231",
"5 c #6BA533",
"6 c #6EA934",
"7 c #6EA738",
"8 c #70A737",
"9 c #72AD36",
"0 c #73AE39",
"q c #76B137",
"w c #78B437",
"e c #76B039",
"r c #7DB539",
"t c #7EB83B",
"y c #7EB940",
"u c #80B73F",
"i c #80BA3D",
"p c #80B940",
"a c #B48D71",
"s c #313597",
"d c #3B3BB2",
"f c #4141C6",
"g c #5344D4",
"h c #5D4DDE",
"j c #6B52F8",
"k c #9474D3",
"l c #9471EA",
"z c #BD858A",
"x c #A69089",
"c c #BBA2BE",
"v c #C7AB99",
"b c #C5AA9F",
"n c #DABEAD",
"m c #E7CDB8",
"M c #B596CF",
"N c #CFBDD7",
"B c #EBD6C0",
"V c #EFE0D5",
/* pixels */
"9rrrrrrrrrr6rrr9err0e5r0e+XXXXOOOXXXXOXxrrrrrrrreeerre6r6tttrrrr",
"rrrrrre9r00eqrr0rrrre0r60+  XXXXXXXXXXX@rrrrrrrrr76ere660trrrrrr",
"rrrrrrr9990r5rrrrrr@@@@@@sgffffffgggggd+x@@@@rrre656etr6ete0rrrr",
"rrrrrtrq65er9rrrrrrX.XX. fjjjjjjjjjjjjfX     7e06466ett6eyeeeerr",
"rrrrrttrr90rrrrrrr@.sssssfjjjjjjjjjjjjgsssso.@065776ettrrrrt69rr",
"trrrrrrrrerrrrrrrX.shjjjjjjjjjjjjjjjjjjjjhggd..55ee0etrrrrrr66rr",
"ittr9errrrrrrrr@@sdgjcNNNNNNMjjjjjjjjjjjhghgfo.@6rrtyrrrrrrrrre5",
"ritr9rrrrrrrre0O.fjjjnVVVVVVMjjjjjjjjjknnnnnnfdoo+rrrrrrrrrrrr95",
"9tr9rrrrrrere@+ssgjjjnBVVVVVMjjjjjjjjjkVVVVVngfo.+trrrrrrrrrrr96",
"0ttttrrrrr800XohjjjjjmBVVVVVMjjjjjjjjjkVVVVVnggdsoo+rtrrrryrrr9e",
"errtttrrrrrx@sshjjjjjmVVVVVVMjjjjjjjjjkVVVVVnjhhdooOytrrrr0rrrrr",
"rrrrtt00errO.jjjjjjjjmVVVVVVMjjjjjjjjjkVVVVVnjhhfsso@ytrrr00rerr",
"rrrrtr005erO.jjjjjjjjmVVVVVVMjjjjjjjjjkBVVVBnjhhhffs.+ryrre0e0er",
"rrrrrrr650eX.jjjjjjjjlkkkkklljjjjjjjjjjlllllljjjjggsoO0rryrre0rr",
"rrrrrrr5b@@$$kMMMcMjjjjjjjjjjjjjjjjjjjjjjjjjjjjjjggddsX+0yrrrrr0",
"0rrrrr05%.+nmVVVVVMjjjjjjjjjjjjjjjjjjjjjjjjjjjjjjgggfdXO0ryyrrte",
"6e0rrr05%.+nmVVVVVMjjjjjjjjjjjjjjjjjjjjjjjjjjjjjjggggfX 7rrt0ttt",
"r760rrer%.OnnVVVVVcjjjjjjjjjjjjjjjjjjjjjjjjjjjjjjjgggd. 770rrytt",
"t66e0rrt%.OnBVVVVVMjjjjjjjjjjjjjjjjjjjjjjjjjjjjjgggggd. eerrtyty",
"r00e6rrt%.OnmVVVVVMjjjjjjjjjjjjjjjjjjjjjjjjjjjjggggggd.Xrrrr0tpt",
"trrrrrrr%.OnmVVVVVMjjjjjjjjjjjjjjjjjjjjjjjhggggggggggdXXrrttettt",
"rrtrrr$+sdscccNNNNkjjjjjjlkkkkkljjjjjjjjjjhgggggghgggdssoO@ettrr",
"rrrrrrX.fhhhhhhjjjjjjjjjjNVVVVVNjjjjjjjjjjhghzzzzbbbcddds.+0yyrr",
"trrrrrX.fhhhhhjjjjjjjjjjhNBVVmBNggggggggggggkBVVVBVVnddfs.O0t0rr",
"rtrtttXXfjhghjjjjgggggghhNVVVmmNffgggggfggggkmmBBmBBbdffs.O0t9r9",
"ttrrrrO.fjjhjjjjjggggggghNBmmmmNgfggggggggggMmnmBBBmbdffs.Orqrt6",
"ttttttO.fjjhjjjjjggggggghNmmmmncffffffffgfffkmmBBBmnbdffs.Otrrte",
"ttttttOozbcgggggffffddddfkkkkkksddddddddddddkBmmmmmmNdffs.Otrrrr",
"ttttttOoxBbffffffffdddddddddddddsdddddddddddsnnnBBmncddfs.Orrrrr",
"ttte0rOoxnbfffffffds.ooo.oo...ooooooooooooosszzzzzzzMddfs.Orrrrr",
"rtte6tOoxnnfffffddds                       .sddddddddddfs.Orrrrr",
"59eq0tX.O$$dfffsoooX++++++@@@@@@@@@@@@%++++osddddfdddddfs.Orrrrr",
"566qttX.dddddsoX   +####%%bbvvvvvvvvvvv####..ooooosddddfo.Orrrrr",
"5errttX.ddddds     +####$%vvvvvvvvvvvvv####O.XX...oddddfo Orrrrr",
"0rrrrrO.sssddo$#%%%#####%%vvvvbbbvvvvvv#######aaa+odddsdo O9rrtt",
"errrrrrrOossso$aaaaa###$+%vvvvvbbvvvvvvOO##aaaaaa$.oooo.@9e4<ttt",
"rrrrrrtt+Xooo.%a#aaa#$$XXxnnnvvbnnnmmnvO.%##aaaaa$oooo..x&*6qetr",
"rtrrrr6tbb@   %##aaa$$$X.xnnnvnnnnnmmmvO.$#######%OX  @x><5w6qrr",
"rreere5rrr%XO  X XXXX   XxnnnnnnnmnmmmvO.XXXOOOOOOX   &&<56t<wrr",
"rr00re5rrtbrrr           %nnnnmmmnnnmmvOXX        +**===&=<65wrr",
"0reeq26rrrrrrrrtrrrr0r9XXxmmmmBBBnmmmBvOX@;x@@@@@@@:<2<59965rrrr",
"5rrrq269rrrrrrrttrrrtr5XXxmmmmBBBnmBmBnO.b>>-->>>>>*><:9ww35wwrr",
"5erq5356rrrrreerrrrrtr5XXxBmmmBBBnmmmBnO.b;;&&;***>5<<=9ww29q56r",
"5errq26errrrree0rr0rr55XX%BmnnBBBmmmmBnO.b&&&&&*&&*><6wwrq5wq593",
"6rrre56qreee0re5tteee56XXxBBBBBBBBBBBBnO.x;>&&&>>>>5errwr99w25q3",
"qrrrreeeeeee6e05rtr06eeXX%BBBBBmBmBBBBnO.x;>;->;>>>errrrrr9q5qq6",
"errrrrrreeeee5e7rrrrertXX%BBBBmmBmmBBBnO.x1>>1r,<><errrrrrr99969",
"rrrrrrrr9e9er6re6ee5ert.X%BBmmmmmBBBBmnO.x6<6rrrrrrrrrrrrrrrr99r",
"rrrrrrrree6et6re50e6@@xx%xBBmmmmmmmmmmn++%xx0rrrrrre9errrrrypptu",
"rrrrrrrrrrerr6e06err+ xBBBBBmmmmmmmmmmmbbx..rrrrree060rrrrrtpprr",
"rrqerrrrrrtttee0rrrr+XxBBBBBmmmmmmmmmmmbnx.Xrrrrr0e069rrrrrtpp0r",
"rr99r6errrrrtrrrrrrr+.xBBBBBmmmmmmmmmmmnnx.Xrrrryrreerrrrrrr9rtt",
"rrrrt9rrrrrrrrrtr0er+.xBBBBBmmmmmmmmmnnvbx..yryryrrrrrrrrrrr69et",
"rrrr96rrrrrrerrrr9erO.xBBBBmmmmmmmmmnvvvvx..ryrrye0rrrrrrrrerr6t",
"r5rrq6qerrr66re950rrO.xBmmBBmmmmmmmmmmmvvx..rteerrrrrrrrrr96rq6r",
"r6rrr966rrr66ee259rrO.%nnnBmmmmmmmmmmmmbbx. tteetrrrrrrrrr95r59t",
"trrrrr96rrr6666459rrO.%nnnBmmmmmmmmmnnnvbx..rrrrrtr69rrrrr96r5te",
"trrrrre9qr6re4eq69rtO.%nnnBmmmmmmmmmvvvvbx.Xrrrrrr05695rre0rr5t0",
"rrrrrrre6t6re5reeerrOX%nvbnnnnnnnnnnvvvvvx.Xrrrrr6e0650rrerrr9rr",
"rrrrrrrr96errqrrrrrrre%$@bbbbbbbbbbvvbv%@%6eerrrr6ee660rrrrrrtrt",
"rrrrrrrrq6errqrrrrrr0r%X+bbbbbvbbbbvvbb+ %eee9eer99e050rrrrrrrtt",
"rrrrrrrrre6rr6tttrre5ex++xxxxxxxxxxxxxx$+xte59e60r60rrrrrrrrrryt",
"rrrrreerrrrttrrttree56rrb              r06rq6re60r60rrrrrrr00rrt",
"rtrr069rrrrttrttrr67e5e9b             Xtrere9re60rerrrtttrr51rrr"
};
