/* XPM */
static char *collectible[] = {
/* columns rows colors chars-per-pixel */
"64 64 232 2 ",
"   c #673B47",
".  c #6D4754",
"X  c #7C4A59",
"o  c #79535C",
"O  c #6E5865",
"+  c #7B5965",
"@  c #7C646A",
"#  c #7E6C78",
"$  c #8C4E57",
"%  c #85565D",
"&  c #93565A",
"*  c #9D615E",
"=  c #885964",
"-  c #975C67",
";  c #866469",
":  c #8B636A",
">  c #99686C",
",  c #8F7069",
"<  c #8C6C72",
"1  c #886A74",
"2  c #996A73",
"3  c #8D7578",
"4  c #99777A",
"5  c #A7686B",
"6  c #B1706F",
"7  c #B5736C",
"8  c #A46C77",
"9  c #AA6D74",
"0  c #A87579",
"q  c #B97879",
"w  c #C27A7B",
"e  c #AC827C",
"r  c #BA837B",
"t  c #C8847D",
"y  c #D7867D",
"u  c #E88A7C",
"i  c #EB8C7C",
"p  c #7B7484",
"a  c #8E7A80",
"s  c #987C83",
"d  c #A97C82",
"f  c #B77C83",
"g  c #C47E83",
"h  c #8B888A",
"j  c #998588",
"k  c #989193",
"l  c #999999",
"z  c #A68687",
"x  c #AE8E8F",
"c  c #B38383",
"v  c #B88789",
"b  c #AE959A",
"n  c #A89899",
"m  c #B69798",
"M  c #B2A79C",
"N  c #9895A1",
"B  c #AB9CA6",
"V  c #B49CA4",
"C  c #9DA4AB",
"Z  c #A8A5A7",
"A  c #B7A7AC",
"S  c #AFAFB1",
"D  c #BAABB3",
"F  c #A8B9B8",
"G  c #BCB3B8",
"H  c #C58285",
"J  c #CB8584",
"K  c #CA8A87",
"L  c #C4858B",
"P  c #D78A85",
"I  c #D28B8B",
"U  c #C6968A",
"Y  c #D9968C",
"T  c #C98D91",
"R  c #D28D91",
"E  c #CC9395",
"W  c #C79A96",
"Q  c #D29393",
"!  c #D89995",
"~  c #D59A9B",
"^  c #D99C9C",
"/  c #E48D82",
"(  c #E59587",
")  c #EB9384",
"_  c #EB9C8C",
"`  c #F19789",
"'  c #E39D93",
"]  c #E49C97",
"[  c #CAA69A",
"{  c #D8A59B",
"}  c #DAB09E",
"|  c #EBA28D",
" . c #F6AB8B",
".. c #EFB08B",
"X. c #F6B28D",
"o. c #E3A395",
"O. c #ECA495",
"+. c #E8AB97",
"@. c #E3A39B",
"#. c #EBA59A",
"$. c #F2A797",
"%. c #F2AB94",
"&. c #F3AC9A",
"*. c #EDB69A",
"=. c #F4B494",
"-. c #F5B49D",
";. c #F9B59A",
":. c #F6BB9D",
">. c #F9BB9E",
",. c #C9ADA8",
"<. c #DBA9A5",
"1. c #C7B6AB",
"2. c #D8B4A9",
"3. c #C5ACB2",
"4. c #C4B4BB",
"5. c #C6B8B8",
"6. c #DAB6B4",
"7. c #E9ADA4",
"8. c #EAB6A7",
"9. c #F3B4A4",
"0. c #F4BCA2",
"q. c #F9BEA2",
"w. c #F3B6A9",
"e. c #F3BDAD",
"r. c #E8BBB4",
"t. c #8FC6A7",
"y. c #94CBAA",
"u. c #97CDAA",
"i. c #9BD3AD",
"p. c #9FD8AF",
"a. c #94C6B0",
"s. c #9DD4B1",
"d. c #A0D7AE",
"f. c #A2DAAE",
"g. c #A7C0BB",
"h. c #A3D7B5",
"j. c #A4DCB2",
"k. c #ABE3AF",
"l. c #A7E0B1",
"z. c #ACE4B4",
"x. c #AFEAB4",
"c. c #AEEABA",
"v. c #B1ECB3",
"b. c #B3E8BA",
"n. c #B1EBBA",
"m. c #B1ECB9",
"M. c #F6C29E",
"N. c #C7C1B7",
"B. c #D8C7B9",
"V. c #F5C3A4",
"C. c #F4C3AC",
"Z. c #F9C7A9",
"A. c #F5CCAB",
"S. c #F6CBAC",
"D. c #E8C6B8",
"F. c #F5C4B2",
"G. c #F5CBB6",
"H. c #F9CDB3",
"J. c #E8D2B7",
"K. c #F6D2B3",
"L. c #FAD2B4",
"P. c #F5D3BC",
"I. c #FAD4BB",
"U. c #F7DABD",
"Y. c #FDE2BD",
"T. c #BDBEC1",
"R. c #C8BBC2",
"E. c #D1BEC2",
"W. c #ABC6C5",
"Q. c #B6CAC8",
"!. c #AED4CC",
"~. c #B5D8CB",
"^. c #BADAD5",
"/. c #BCDCD5",
"(. c #ADE9C3",
"). c #A7E5C9",
"_. c #A8E5CA",
"`. c #B1E4C4",
"'. c #B4E3CB",
"]. c #B8E4CB",
"[. c #A8E3D2",
"{. c #BBE3D4",
"}. c #BCE3D8",
"|. c #CAC3C7",
" X c #D6C8CB",
".X c #CCD1CB",
"XX c #C8CDD4",
"oX c #D6CCD2",
"OX c #C6DCD9",
"+X c #D9D5D9",
"@X c #DCD5D9",
"#X c #ECCCC7",
"$X c #ECD8C7",
"%X c #F6D9C6",
"&X c #E5DBDB",
"*X c #C3E5DB",
"=X c #C8E5DC",
"-X c #D6E2DD",
";X c #FAE3C4",
":X c #F9E6CC",
">X c #F9E8D3",
",X c #FDF3D8",
"<X c #D9DCE2",
"1X c #E4DCE3",
"2X c #E9DDE1",
"3X c #C9E7E4",
"4X c #CAE6E4",
"5X c #CCEAE4",
"6X c #D8E6E8",
"7X c #D4EBEC",
"8X c #DAECED",
"9X c #DBF2ED",
"0X c #DCECF3",
"qX c #DCEDF7",
"wX c #E4E1E4",
"eX c #EAE3E5",
"rX c #E4E4EB",
"tX c #EBE6EB",
"yX c #E3E9ED",
"uX c #ECEAED",
"iX c #F5EBE9",
"pX c #F5F1EF",
"aX c #E3EEF3",
"sX c #EBECF2",
"dX c #F1EEF2",
"fX c #E3F3F4",
"gX c #EBF3F6",
"hX c #E5F3F9",
"jX c #ECF4F9",
"kX c #F5F3F5",
"lX c #F4F6FA",
"zX c #F4F8FA",
/* pixels */
"n.n.n.n.n.n.n.n.n.n.n.v.n.n.n.n.v.n.n.n.n.n.n.n.n.v.n.n.n.n.n.n.n.c.n.n.n.n.n.n.n.n.n.n.n.n.n.n.n.n.n.n.n.n.n.n.n.x.x.n.n.x.c._.",
"n.v.v.v.v.v.v.v.v.v.v.v.v.v.v.v.v.v.v.v.v.v.v.v.v.v.v.v.v.v.v.v.v.v.v.v.v.v.v.v.v.v.v.v.v.v.v.v.v.v.v.v.v.v.v.v.v.v.v.v.v.v.v.(.",
"n.v.v.v.v.v.v.v.v.v.v.v.v.v.v.v.v.v.v.v.v.v.v.v.v.v.v.v.v.v.v.v.v.v.v.v.v.v.v.v.v.v.v.v.v.v.v.v.v.v.v.v.v.v.v.v.v.v.v.v.v.v.v.(.",
"n.v.v.v.v.v.v.v.v.v.v.v.v.v.v.v.v.v.v.v.v.v.v.v.v.v.v.v.v.v.v.v.v.v.v.v.v.v.v.v.v.v.v.v.v.v.v.v.v.v.v.v.v.v.v.v.v.v.v.v.v.v.v.(.",
"v.v.v.v.v.v.v.v.v.v.v.v.v.v.v.v.v.v.v.v.v.v.v.v.v.v.v.v.v.v.v.v.v.v.v.v.v.v.v.v.v.v.v.v.v.v.v.v.v.v.v.v.v.v.v.v.v.v.v.v.v.v.v.(.",
"v.v.v.v.v.v.v.v.v.v.z.j.v.v.v.v.v.v.v.v.v.v.v.v.v.v.v.v.v.v.v.v.v.v.v.v.v.v.v.v.v.v.v.v.v.v.v.v.v.v.v.v.v.v.v.v.v.v.v.v.v.v.v.`.",
"v.v.v.v.v.v.v.v.v.v.j.s.v.v.v.v.v.v.v.v.v.v.v.v.v.v.v.v.v.v.v.v.v.v.v.v.v.v.v.v.v.v.v.v.v.v.v.v.v.v.v.v.v.v.v.v.v.v.v.v.v.v.v.(.",
"v.v.v.v.v.v.k.z.v.v.j.i.v.v.z.z.v.v.v.v.v.v.v.v.v.v.v.v.v.v.v.v.v.v.v.v.v.v.v.v.v.v.v.v.v.v.v.v.v.v.v.v.v.v.v.v.v.v.v.v.v.v.v.(.",
"v.v.v.v.v.v.f.i.z.v.j.i.v.z.u.d.v.v.v.v.v.v.v.v.v.v.v.v.v.v.v.v.v.v.v.v.v.v.v.v.v.v.v.v.v.v.v.x.j.v.v.v.v.v.v.v.v.v.v.v.v.v.v.(.",
"x.v.v.v.v.v.v.s.i.z.s.u.v.i.u.z.v.v.v.v.v.v.v.v.v.v.v.v.v.v.v.c.c.x.v.v.v.v.v.v.v.v.v.v.v.v.v.z.u.z.v.v.v.v.v.v.v.v.v.v.v.v.v.(.",
"x.v.v.v.v.v.v.j.s.j.j.f.z.u.d.v.v.v.v.v.v.n.n.n.v.v.v.v.v.'.hXjXgXhX/.v.v.v.v.v.v.v.z.z.v.v.v.z.u.z.v.x.v.v.v.v.v.v.v.v.v.v.v.(.",
"n.v.v.v.v.v.v.z.u.j.v.x.z.u.f.v.v.v.v.v.v.n.v.v.v.v.v.n.3XlX@X5.5.&XsX{.v.v.v.v.v.v.j.u.z.x.x.z.u.z.v.v.z.z.v.v.v.v.v.v.v.v.v.(.",
"c.v.v.v.v.v.v.v.z.x.v.v.v.x.v.v.v.v.v.v.v.v.v.v.v.v.v.{.lXR., c v x D jX`.v.v.v.v.v.n.i.s.c.x.z.u.z.x.c.u.u.v.v.v.v.v.v.v.v.v.(.",
"c.v.v.v.v.v.v.v.v.v.v.v.v.v.v.v.v.v.v.v.v.v.v.v.v.v.n.8XeX4 ! 2.#Xr.1 sX5Xv.v.v.v.v.v.c.t.u.x.z.t.z.v.s.t.z.v.v.v.v.v.v.v.v.v.(.",
"n.v.v.v.v.v.v.v.v.v.v.v.v.v.v.v.v.v.v.v.v.v.v.v.v.v.n.jX5.U Y { %X<.x eXhXn.v.x.v.v.x.x.u.u.z.z.u.z.z.u.i.n.x.v.v.v.v.v.x.v.v.(.",
"n.v.v.v.v.v.v.v.v.v.v.v.v.v.v.v.v.v.v.v.v.v.v.v.v.v.n.gXG W o.@.r.{ , @XfXc.v.v.v.v.v.x.j.u.z.x.v.v.j.u.j.v.v.v.v.v.v.v.v.v.v.(.",
"n.v.v.v.v.v.v.v.v.v.v.v.v.v.v.v.v.v.v.v.v.v.n.n.v.v.n.sXA c @.' o.! 1 uXaXn.v.v.v.v.v.v.j.t.z.x.x.x.j.t.j.v.v.v.v.v.v.v.v.v.v.(.",
"n.v.v.v.v.v.v.v.v.v.v.v.v.v.v.'.5X7X3X{.n.v.v.v.v.v.n.aXoX; 0 ! I 0 3 uX3Xn.v.v.v.v.v.n.}.3X3X~.c.n.x.n.v.v.v.v.v.v.v.v.v.v.v.(.",
"n.v.v.v.v.v.v.v.v.v.v.v.v.n.3XsX1XoXoXsX3Xn.v.v.v.v.v.8XpX3.% 5 q . E.6Xc.v.v.v.n.v.`.aXuXeXeXtX7X'.v.v.v.v.v.v.v.v.v.v.v.v.v.(.",
"n.v.v.v.v.n.n.v.n.v.v.v.v.3XrXD 1 o o n tX~.v.v.v.v.v.8XiXz f K J > 4.aXc.v.v.v.n.n.fXtXa = + j wXjX`.v.v.v.x.v.v.v.v.v.v.v.v.(.",
"n.v.v.`.5X0X8X{.v.v.v.v.n.aXG o d <.v   D 0X`.v.v.v.x.aX X% { +.o.! 3 uX'.v.v.v.v.`.zXB 0 E E 0 3 eX5Xv.v.v.v.'.3X7X3X{.c.v.v.(.",
"n.v.}.jXuX&X&XtXaX`.v.v.n.sXk 8 g ^ q $ @ rX'.v.v.v.`.dXb > 0.>.&.r.: oX0Xn.v.v.v.'.wX= f ! ^ L o 4.gXn.v.v.{.gXdXeXeXkXfX'.v.(.",
"v.'.zXuXa 1 1 a @XjX`.v.n.sXB 8 H w 5 - + rX'.v.v.z./.iXj U =.X.%.F.x b kX`.v.v.v.].wXo 0 d H L o Z zXn.v.'.zXoX3 1 4 4.iXyX`.(.",
"v.5XzXj x #X#Xz a sX=Xv.n.jXR.= L w q - b yX~.v.v.j.6XoX; C.%. .%.C.D.; 4.8Xv.v.v.].kX1 v v L v ;  XjXn.v.=XiXO b #XD.W j uX3X(.",
"n.0XwXo E D.D.E 1 1XfXv.v.6X@Xa v K w - 5.uX~.v.v.~.tXj 2.0. . . .V.;Xx z sX`.v.n.'.lX5.; c E = j @X8Xv.v.5XeX. 6.%X2.%Xj uX7X(.",
"n.0XwXo { 8.{ q 2 1XlXv.v.*XwX5.0 T H 9 1 1X!.v.c.rXR.@ %X=. . . .V.;XJ.4 &X*Xv.n./.iXs > ~ ^ - b uX=Xv.v.=XuX+ 6.r.<.%Xz rX0X`.",
"n.5XkX@ L ~ 9 = + @XlXn.v.n.rXE.8 Q R f % 5.XXd./.tXj [ U... . . .V.Y.>Xx D yX/./.sX5., ~ ^ <.2 b iX=Xv.v.'.kX3 x <.E W 3 tX3X`.",
"n.'.lXG 0 L - X . 5.dX3Xn.].dXV 8 ~ R K d 1 @X|.rX@X; %XL.X.X.X. .M.Y.;X$Xj &XrXdXoX2 ~ { Q <.c s iX=Xv.n.3XtX; 2 E E s oXjX'.`.",
"n.c.0XuXb 8 - f = +  XlX-X6X&X; 0 Q E K T 0 z &X&Xj 1.;XA.X. .X. .M.Y.;X%X6.D iXE.: E Q E ~ 7.E ; oX6Xn.aXiXz x 6.o ; 5.lX5Xc.(.",
"n.v.n.6XoXd 5 I R v 1 5.lXlXA 2 0 T Q E Q E v x V ; :XU.A.=.X.X.X.V.Y.;X$X>X3 j : L K K ^ { ^ ^ , A kXkX&Xx x #XD.2 4 eXjX`.v.(.",
"n.v.v./.1XW q P P Q W 1 5.2X1 2 f f Q Q Q Q ~ d o B.;XU.A.=.X.>.=.K.>X;XJ.>X1.. d I K Q Q K Q ~ 0 j iX|.z W r.r.e.0 V kX=Xv.v.`.",
"n.v.f.h.sXb > g P y { 2.1 ; = 2 0 f E Q Q Q L > m >XP.A.A.:.0.0.*.U.>X>XD.:X$X; - g J H Q Q ^ ^ L : 1 ; m <.8.w.r.1 5.gXc.v.v.(.",
"n.v.z.u.6XA 2 6 P y y <.6.1 - - 5 9 q K K c > x >XU.K.L.H.F.[ z 3 M >X>XJ.U.P.D., & f I ! ! ^ E d % 4 D.G.7.9.w.W = |.fXv.v.v.(.",
"n.v.v.u.OXoX4 & J / u P 8.r.c > 5 9 q q 9 > e $XP.L.I.I.P.2.|.-X-XN.1.,XJ.K.V.C.r.e $ 5 6 9 9 & & W G.8.o.&.&.7.2 ; @X7Xv.v.v.`.",
"n.v.v.z./.1Xz = 5 P / y _ +.F.D.,.x 0 e m B.%XU.A.I.I.%X1.S OXQ.~.-Xl  X>XU.*.=.=.e.2.c 0 0 c [ r.e.o._ _ _ +.c X + 1X5Xv.v.v.(.",
"n.v.v.x.OXtX1 = $ w / / ( $.O.0.P.%X>X:X:XP.K.A.C.I.U.J.k OX=X5X=XOX.Xk ,X>XA.=. .O.0.F.%X%XP.C.O._ ` ` / _ ! % a O @X=Xv.v.v.(.",
"n.v.v.v.3X1X+ 6.0 & P ( ( | %.*.0.7.[ 2.C.V.V.Z.V.H.P.n Q.3X7XfXfX9XXXh B.,XK.=.=. . .%.@.W o._ ) ) u / / _ 0 oX@Xp XX=Xv.v.v.`.",
"n.v.v.v.0X X2 r.E & w ( ( $.%.-.@.m m z { 0.q.Z.V.Z.P.n /.5X9XfXfX9X~.C M ,XA.>.;.%. .o.9 4 v O.) u u u / P x &X@Xp XX=Xv.v.v.`.",
"n.v.v.v.0XR.f <.T & w ( _ %.%.-.[ A eX@Xz @.q.q.:.V.G.n ~././.=X=X=XQ.S M ,XK.0.;.%.+.r ,.$X1.! ) u u u / J s |.S p XX}.v.v.n.(.",
"n.v.v.v.3XoXx d g - w ( O.%.| +.m @XyX6Xn U q.>.:.V.K.n Q.!./.=X*X*Xg.F M ,XL.Z.-.&.Y W  X&X5.0 _ u u u ) H 4 Z N p @X{.v.v.v.(.",
"n.v.v.v.{.rX3.2 L 5 w P O.%.| O.c T.6XQ.B U q.M.M.V.K.j W.W.~.~.~.Q.F Z A ,XL.Z.-.-.{ ,.4.@Xj W O.u u u ) J 4 |.N p rX{.v.v.v.(.",
"n.v.v.v.n.jXR.2 L 5 K P O.&.| O.W j F C k ! :.:.0.V.K.[ l W.Q./.~.F F h B.>XL.Z.0.;.9.x b  X; 7.( u u u ) ' c s O R.aX`.v.v.v.(.",
"n.v.v.v.n.fX@X= 9 H 7.+.O.&.$.O.@.x B k c *.:.:.0.Z.K.%X1.h F g.F F l 1.$X>XA.Z.>.>.9.<.4 b W 9.( u ( _ &.&.' L + @X8Xv.v.v.v.(.",
"n.v.v.v.v.=XwXb 5 6 6 K ( &.$.$.O.@.L K @.0.V.Z.Z.A.L.U.:XB.h F g.l N.:XU.Y.A.>.q.>.-.9.7.W w.O.O.&.&.&.Y 6 $ - 1 wX7Xv.v.v.v.(.",
"n.v.v.v.v.{.lXb 8 ! ' J 6 6 t K ( ' ' O.&.:.V.Z.A.A.K.U.;X%XJ.3 4 D.%XK.K.L.M.:.;.;.;.&.9.9.&.&.#.Y t 6 q Y @.E k sX3Xv.v.v.v.(.",
"n.v.v.v.v.{.zXA 9 J ! @.#.#.Y t 6 5 6 t Y o.8.e.F.H.H.U.%X%XP.D.8.K.A.A.C.q.:.&.O.' ' Y K t q 6 t Y @.7.9.o.Y c n gX'.v.v.v.v.(.",
"n.v.v.v.v.'.zXG 0 g w I ! ' #.w.w.8.! r 5 * & & & > > e U { { 7.! U r 6 6 5 6 5 & & 5 q U { 8.e.e.e.8.@.! Y K d 5.hXn.v.v.v.v.(.",
"n.v.v.v.v.n.hX@Xj d H K J K J J I @.w.e.F.F.F.G.G.D.2.2.[ W U U Y { [ [ [ { } 8.G.I.I.I.F.e.8.+.o.' ' ' ! E v 1 wX7Xv.v.v.v.v.(.",
"n.v.v.v.v.v.5XgX@X1 2 0 c K Q I J J t J K ' 9.C.H.I.K.K.L.H.A.V.V.L.L.L.L.L.L.L.L.F.@.' ! ' ' ' ' @.! K v 4 # 1XjX'.v.v.v.v.v.(.",
"n.v.v.v.v.v.n.=X8X<XG b b m 0 8 K I I K P P P P Y 8.F.H.Z.V.q.q.| O.O.=.0.0.-.0.9.#.P P ' ' @.^ c x W ; j R.rXjX{.v.v.v.v.v.v.(.",
"n.v.v.v.v.v.v.v.c./.aXlX@X5.Z k +   % 9 H I R I P I @.7.9.+.#.y y O.O.O.#.#.@.@.' ' ! f c 0 = ; 3 b 4.@XlXfX5X`.v.v.v.v.v.v.v.(.",
"n.v.v.v.v.v.v.v.n.u.a.~.=XfXjXlXdXrXoXA @ o + o X X % = > 5 9 5 - 8 8 8 > = % ; = 1 1 1 A oX@XdXgXjX0X=X'.v.v.v.v.v.v.v.v.v.v.(.",
"n.v.v.v.v.v.v.v.v.n.u.d.n.d.h.'./.OX<X<X@X@X@X|.T.T.T.G A B B B B B B Z D D G R.|.oXoX@X6X0X7X=X'.c.v.v.v.x.v.v.v.v.v.v.v.v.v.(.",
"n.v.v.v.v.v.v.v.v.x.i.u.z.x.v.v.i.u.n.`.`.`.'.{.=X3X0X0X0X0X0X0X0XhXfXhX0X7X5X3X=X{.'.'.`.v.v.v.v.v.v.v.v.i.f.v.v.v.v.v.v.v.v.(.",
"n.v.v.v.v.v.v.v.v.v.d.u.n.v.v.v.i.u.n.v.v.v.v.v.v.v.v.v.v.v.v.v.v.v.n.n.v.v.v.v.v.v.v.v.v.v.v.v.v.v.v.v.v.i.p.v.v.v.x.v.v.v.v.(.",
"n.v.v.v.v.v.v.v.v.v.v.z.v.v.v.v.x.x.v.v.v.v.v.v.v.v.v.v.v.v.v.v.v.v.v.v.v.v.v.v.v.v.v.v.v.v.v.v.v.i.f.v.v.i.s.x.x.l.f.v.v.v.v.(.",
"n.v.v.v.v.v.v.v.v.v.v.v.v.v.v.v.v.v.v.v.v.v.v.v.v.v.v.v.v.v.v.v.v.v.v.v.v.v.v.v.v.v.v.v.v.v.v.v.v.j.u.j.n.i.d.v.f.u.l.v.v.v.n.(.",
"n.v.v.v.v.v.v.v.v.v.v.v.v.v.v.n.v.v.v.v.v.v.v.v.v.v.v.v.v.v.v.v.v.v.v.v.v.v.v.v.v.v.v.v.v.v.v.v.v.n.i.u.n.i.j.n.i.i.v.v.v.v.v.`.",
"n.v.v.v.v.v.v.v.v.v.v.v.v.v.v.v.v.v.v.v.v.v.v.v.v.v.v.v.v.v.v.v.v.v.v.v.v.v.v.v.v.v.v.v.v.v.v.v.v.v.c.u.n.n.n.v.u.z.v.v.n.v.v.(.",
"(.v.v.v.v.v.v.v.v.v.v.v.v.v.v.v.v.v.v.v.v.v.v.v.v.v.v.v.v.v.v.v.v.v.v.v.v.v.v.v.v.v.v.v.v.v.v.v.v.v.n.j.n.n.n.n.j.v.v.v.v.v.v.(.",
"n.v.v.v.v.v.v.v.v.v.v.v.v.v.v.v.v.v.v.v.v.v.v.v.v.v.v.v.v.v.v.v.v.v.v.v.v.v.v.v.v.v.v.v.v.v.v.v.v.v.v.v.v.v.v.n.n.n.v.v.v.v.v.c.",
"n.v.v.v.v.v.v.v.v.v.v.v.v.v.v.v.v.v.v.v.v.v.v.v.v.v.v.v.v.v.v.v.v.v.v.v.v.v.v.v.v.v.v.v.v.v.v.v.v.v.v.v.v.v.v.v.v.v.v.v.v.v.v.c.",
"(.n.v.v.v.v.v.v.v.v.v.v.v.v.v.v.v.v.v.v.v.v.v.v.v.v.v.v.v.v.v.v.v.v.v.v.v.v.v.v.v.v.v.v.v.v.x.v.v.v.v.v.v.v.v.v.v.v.v.v.v.v.v.(.",
"[._._._._._._._._._.).)._.).).).).).).).)._.).)._.).)._._._.)._.).).).)._._.).).).).).).).).).).).).).)._.).)._._._._._._._._.[."
};
