/* XPM */
static char *exit[] = {
/* columns rows colors chars-per-pixel */
"64 64 246 2 ",
"   c #5E5067",
".  c #684D65",
"X  c #73556B",
"o  c #795C73",
"O  c #6D6479",
"+  c #79677A",
"@  c #865B63",
"#  c #926C6B",
"$  c #8B6D74",
"%  c #87697B",
"&  c #9A7677",
"*  c #9C7B7B",
"=  c #A17C7D",
"-  c #A0807D",
";  c #7B6C85",
":  c #7E7487",
">  c #876B82",
",  c #916C83",
"<  c #877588",
"1  c #8A7B8C",
"2  c #977688",
"3  c #937B8C",
"4  c #876D94",
"5  c #8A7597",
"6  c #8D7C91",
"7  c #927D93",
"8  c #977A96",
"9  c #A27A8B",
"0  c #A37C95",
"q  c #8E7EA3",
"w  c #8A8E8D",
"e  c #94818D",
"r  c #8B8797",
"t  c #9C8394",
"y  c #9A8A96",
"u  c #968798",
"i  c #9C8B9A",
"p  c #979399",
"a  c #A58688",
"s  c #A5849B",
"d  c #A38D9C",
"f  c #A88999",
"g  c #B38E99",
"h  c #A3949C",
"j  c #A3A29F",
"k  c #998BA4",
"l  c #9989A8",
"z  c #9B96A8",
"x  c #9C90B3",
"c  c #A78CA3",
"v  c #B38BA2",
"b  c #A494A3",
"n  c #AC93A4",
"m  c #A59CA6",
"M  c #AB9AA5",
"N  c #A698AB",
"B  c #AC9BAA",
"V  c #B294A3",
"C  c #B897A8",
"Z  c #B49CAC",
"A  c #A997B4",
"S  c #B69DB4",
"D  c #9BA1A9",
"F  c #A6A3AB",
"G  c #ABA3AD",
"H  c #B7A4AD",
"J  c #B6B6AB",
"K  c #AAA5B2",
"L  c #AEAAB4",
"P  c #B4A5B2",
"I  c #B3ABB4",
"U  c #BAA8B5",
"Y  c #ABB7B8",
"T  c #B8B6B8",
"R  c #D4A49C",
"E  c #E2A695",
"W  c #E3A997",
"Q  c #E3AC9A",
"!  c #E2B19D",
"~  c #C09DAC",
"^  c #C6A8B6",
"/  c #C6ACBC",
"(  c #D1ADB2",
")  c #C7B4BB",
"_  c #E9B9A9",
"`  c #EEBCAE",
"'  c #94CAAA",
"]  c #96CBAA",
"[  c #9CD3AD",
"{  c #9FD8AF",
"}  c #99CDB0",
"|  c #9ED4B1",
" . c #A1D9AE",
".. c #B5C9B6",
"X. c #B6C8B9",
"o. c #A4D8B2",
"O. c #A4DBB2",
"+. c #ABE3AF",
"@. c #ABE4B4",
"#. c #AFEAB4",
"$. c #ADE8B9",
"%. c #B1ECB3",
"&. c #B1ECBA",
"*. c #B9EAB9",
"=. c #CAC6B3",
"-. c #EFC2B6",
";. c #F4C3B3",
":. c #F7C7BB",
">. c #C1ECBC",
",. c #ACA8C7",
"<. c #B6A6CA",
"1. c #ACB7C9",
"2. c #B8B8C5",
"3. c #B3B4CD",
"4. c #B6B9D2",
"5. c #C8ACC7",
"6. c #CCAECC",
"7. c #C5B4C5",
"8. c #CCB3C5",
"9. c #C8B9C7",
"0. c #D7B7C6",
"q. c #D3BCC6",
"w. c #D5BDCA",
"e. c #CAB3D5",
"r. c #D3B5D2",
"t. c #D6BAD5",
"y. c #DABBD5",
"u. c #D6BBDC",
"i. c #D9BDDB",
"p. c #E1BEC8",
"a. c #E2BDD5",
"s. c #C7ACE9",
"d. c #CCB5E9",
"f. c #D4BCE3",
"g. c #D8BDE4",
"h. c #D3BDEC",
"j. c #CCB9F1",
"k. c #D3BDF1",
"l. c #EBBFEC",
"z. c #9FD8CF",
"x. c #BBCAC9",
"c. c #A3D5CE",
"v. c #B6D5C9",
"b. c #BDC7D8",
"n. c #AAD9D6",
"m. c #B3DCDB",
"M. c #B8DAD8",
"N. c #ADE7C4",
"B. c #ADE9C3",
"V. c #A7E5C9",
"C. c #A8E5CA",
"Z. c #B6E5C7",
"A. c #AAE2D6",
"S. c #B7E3DA",
"D. c #BCCEE2",
"F. c #BAD8E3",
"G. c #BDE4E2",
"H. c #BAE8E6",
"J. c #C7C4CA",
"K. c #D7C3C9",
"L. c #DBC1CB",
"P. c #CCD8CA",
"I. c #C2C5D3",
"U. c #C3CBD3",
"Y. c #CBCAD4",
"T. c #C8CBDC",
"R. c #DCC3D5",
"E. c #D2CBD3",
"W. c #D8C7D8",
"Q. c #CAD3DA",
"!. c #D9D7D9",
"~. c #DCD5DD",
"^. c #E6C4CD",
"/. c #F6CDC3",
"(. c #F0D1CF",
"). c #E3C5D3",
"_. c #EACCD5",
"`. c #E4CBD9",
"'. c #E4D3DC",
"]. c #E9D6D8",
"[. c #EAD3DC",
"{. c #F0D5DC",
"}. c #F3DBDD",
"|. c #C5EAC9",
" X c #D8E8CA",
".X c #C1E4D7",
"XX c #DCEAD8",
"oX c #DEF2D6",
"OX c #E3E7CA",
"+X c #E6EAD8",
"@X c #E7F1DA",
"#X c #E4F2DC",
"$X c #C5CDE3",
"%X c #DBC4E2",
"&X c #DAC4EA",
"*X c #C3DCE4",
"=X c #C9D8E6",
"-X c #C5DDEB",
";X c #D4DCE4",
":X c #DBDBE2",
">X c #D8DAE7",
",X c #D4C3F3",
"<X c #D9C4F1",
"1X c #DCCBF4",
"2X c #E5CCE5",
"3X c #EACDE4",
"4X c #E7CAEC",
"5X c #F3CBEA",
"6X c #E8D7E7",
"7X c #E4DBE3",
"8X c #F3DCE3",
"9X c #F2DBED",
"0X c #E6CCF2",
"qX c #EBD4F4",
"wX c #F7D9F4",
"eX c #C6E6E6",
"rX c #CCE2EC",
"tX c #C5EBE9",
"yX c #CBEDEA",
"uX c #D3E4EC",
"iX c #DAE7E9",
"pX c #DBE3EC",
"aX c #D4EAEB",
"sX c #C7F1EB",
"dX c #D5F2ED",
"fX c #CDE4F1",
"gX c #D4E5F2",
"hX c #D8EAF2",
"jX c #D2F4F1",
"kX c #DBF3F2",
"lX c #E3E4EC",
"zX c #EBE5EC",
"xX c #E7E8E8",
"cX c #F5E6E7",
"vX c #EBF3E5",
"bX c #F3F6EC",
"nX c #E5E6F2",
"mX c #E4EBF2",
"MX c #EAEDF3",
"NX c #F5E4F4",
"BX c #F3ECF2",
"VX c #E3F3F4",
"CX c #EBF2F6",
"ZX c #EBF4F8",
"AX c #F4F3F5",
"SX c #F6F6F8",
/* pixels */
"&.&.&.&.&.&.&.&.&.&.&.%.&.&.&.&.%.&.&.&.&.&.&.&.&.%.&.&.&.&.|.#X#X|.&.&.&.&.&.&.&.&.&.&.&.&.&.&.&.&.&.&.&.&.&.&.&.#.#.&.&.#.&.C.",
"&.%.%.%.%.%.%.%.%.%.%.%.%.%.%.%.%.%.%.%.%.%.%.%.%.%.%.%.%.#X'.L G +XoX%.%.%.%.%.%.%.%.%.%.%.%.%.%.%.%.%.%.%.%.%.%.%.%.%.%.%.%.B.",
"&.%.%.%.%.%.%.%.%.%.%.%.%.%.%.%.%.%.%.%.%.%.%.%.%.%.%.%.%.MXu zX/ i CX%.%.%.%.%.%.%.%.%.%.%.%.%.%.%.%.%.%.%.%.%.%.%.%.%.%.%.%.B.",
"&.%.%.%.%.%.%.%.%.%.%.%.%.%.%.%.%.%.#XbXvX#X%.%.%.%.%.%.%.MXe W.K.3 CX%.%.%.%.%.%.%.vX+XxX X%.%.%.%.%.%.%.%.%.%.%.%.%.%.%.%.%.B.",
"%.%.%.%.%.%.%.%.%.%.%.%.%.%.%.%.%.%.lXt 3 I  X%.%.%.%.%.%.CXb n t K mX%.%.%.%.%.%.+Xe U y lX*.%.%.%.%.%.%.%.%.%.%.%.%.%.%.%.%.B.",
"%.%.%.%.%.%.%.%.%.%.@.O.%.%.%.%.%.XXX.C q.M iX%.%.%.%.%.%.mXT L.T 9.iX%.%.%.%.%.%.~.2 _.P J.vX%.%.%.%.%.%.%.%.%.%.%.%.%.%.%.%.N.",
"%.%.%.%.%.%.%.%.%.%.O.| %.%.%.%.%.-X..V ).f 7X*.%.%.%.%.%.mXH n d 9.uX%.%.%.%.%.*.~.< K.f X.uX#.%.%.%.%.%.%.%.%.%.%.%.%.%.%.%.B.",
"%.%.%.%.%.%.+.@.%.%.O.[ %.%.@.@.%.B.~.X f n 9.XX%.%.%.%.%.lXb / Z 9.:X%.%.%.%.%.XX9./ q.+ xXB.%.%.%.%.%.%.%.%.%.%.%.%.%.%.%.%.B.",
"%.%.%.%.%.%. .[ @.%.O.[ #.@.] [ %.%.mXG ~ Z i MX%.%.#XvXvXzX8 c C P 6XxXxXoX%.%.MXd / M T hX%.#.O.%.%.%.%.%.%.%.%.%.%.%.%.%.%.B.",
"#.%.%.%.%.%.%.| [ @.| } #.[ ] @.%.%.-X~.2 ) d lX+XbXE.8 t 8 8 8 3 2 3 8 8 :X*. XzXi E.d ~.M.%.@.] @.%.%.%.%.%.%.%.%.%.%.%.%.%.B.",
"#.%.%.%.%.%.%.O.| O.O. X#X..O.%.%.%.B.AXd C s J.~.7.d / t.t.r.r.6.r.r.r.S d =.7Xq.B Z t zX%.%.@.] @.>.+XoX%.%.%.%.%.%.%.%.%.%.B.",
"&.%.%.%.%.%.%.@.} O.vX~.T K.+X%.%.%.%.AXH / / % 8 T > y T Z S S S P Z S % 2 ^ C o Z / b zX%.#.@.] vX~.X.~.xX%.%.%.%.%.%.%.%.%.B.",
"&.%.%.%.%.%.%.%.@.#.:X3 K.b Y. X%.*.bX~.d C ) L.[._.U t X.X <.<.e.u.3 E.t 9 0._._.8.C < T +X#X@.] T.B ) 1 lX*.%.%.%.%.%.%.%.%.B.",
"&.%.%.%.%.%.%.%.%.*.J.P zXI T iX%.AXH U _.}.[./ d % 1 9.zX5 h.e.%X%Xc zXH o + % C p.{.6XJ i MX@.P.F t `.P J.|.%.%.%.%.%.%.%.%.B.",
"&.%.%.%.%.%.%.%.%.%.Y.2 d s i lXOX7XU w.C C u Y J.i BXmXMXx 1Xh.wX3Xc BXMX~.p U.p % t H K.B lX@.:Xt 0 s 1 MX$.#.%.%.%.%.#.%.%.B.",
"&.%.%.%.%.%.%.%.%.%.gX7X2 C V 9.:X7X2 , . E.aXM.aX..zXQ.MXN 1Xh.4X3Xs zX:XY.2.tXc.aXX.. , + lX+XJ.t v 2 7XrX%.%.%.%.%.%.%.%.%.B.",
"&.%.%.%.%.%.%.%.%.%.%.CXb ^ 8.3 zXBX[.5.> x.yXn.tXP.J.v.mXN 1Xh.6X3Xs 6XxXG *XH.S.kX=.s K.7XBXzXi U C m uX%.%.%.%.%.%.%.%.%.%.B.",
"&.%.%.%.%.%.%.%.%.%.%.*X7Xs ^ s U Z 9 V t j aXn.H.uXX.XXCXx 1X&X6X6Xc BXAXr jXM.tXVXL t T M P d Z C < nX%.%.%.%.%.%.%.%.%.%.%.B.",
"&.%.%.%.%.%.%.%.%.%.%.%.nXB ~ C 2 ( ^.^., + hXG.S.yXF xXMXx 1X&X9X6Xn AXlXz jXn.jXVX< U [._.w.3 q.U X.=X%.%.%.%.%.%.%.%.%.%.%.B.",
"&.%.%.%.%.%.%.%.%.%.%.%.mXT % / p.p.V % Z 1 iXtXn.yX..zXAXx 0X&X9X9XB AXJ.v.yXM.jX~.M I % n L.[./ < E.hX%.%.%.%.%.%.%.%.%.%.%.B.",
"&.%.%.%.%.vXbXbX#X%.%.vXT ) _.^.^ 1 u c BXT J.yXc.tXP.X.MXN qX&X9X9Xc BXG XXH.S.yX2.J.mXd Z % Z _.[.T ..#X%.%.vXbXvXoX%.%.%.%.B.",
"&.%.%.%.#XY.M d E.vX+X9.K._.8.V ..Q.;Xt zX~.z aXn.S.aXF zXk qX&X9XwXc 9Xz aXA.S.yXD 7X~.V _.w.c , ) [.=.iX%.#X..P G Y.*.%.%.%.B.",
"%.%.%.%.gXi ^ ^ t lXMXJ.V % > T CXM.*XI.T BX< hXG.n.dXF 7Xl 1X&XwXwXd t...tXz.H.aXz zXM ^.^./ [.V o d u lXvX:Xp E.7XG xX%.%.%.B.",
"%.%.%.%.fXi 0 2 s i zXzX> n R.y CXeXM.uXp zXX.Q.yXc.dXY.E.l 1Xh.6X6Xs Z P.H.z.sXQ.9.[.H _.8._._.+ Z t 1 zX7Xi s s t X.rX%.%.%.B.",
"&.%.%.%.%.:Xt 9 C 0 i zXBXq.H 3 :XkXM.eXI.T '.F jXn.yXxXX.l <Xh.5X5X9 > uXH.A.tXF [.H _.).L.}.n n U E.AX7Xi C / h T MX%.%.%.%.B.",
"&.%.%.%.%.%.mXB , C C d t ) 8XL.i VXtXM.uXp zXe kXM.G.CXJ k k.d.4X5X, c gXA.S.eX1 R.H {.r.}._.% [.[.T H t / v 3 E.CX%.%.%.%.#.&.",
"&.%.%.%.%.%.Z.MX1 v v , 8.}.^ % J.Q.kXM.eXU.T m uXtXM.VX..5 j.s.4X5X> J.yXn.H.x.b Z _._._.}.H H Z V 8X8.% / f q.SXZ.%.%.%.%.%.B.",
"&.%.%.%.%.%.%.hX:X> % q.{.~ X q.SXz ZXtXM.kXj 9.J.jXn.dXJ.4 d.s.l.5X> Q.H.n.yX..T U {.^.}.}.3 6XX.B d 8X8.o d BX*X%.%.%.%.%.%.B.",
"&.%.%.%.%.%.%.VXzX3 q.8Xd ^ [.d 7XT U.kXS.eX:XG z VXM.tX;X4 s.s.l.5X> eXH.M.gXJ h {._.}.cX/ q.E.K.mXm v {./ % ~.*X%.&.&.%.%.%.B.",
"&.%.%.%.%.%. .CXe q.[.d ^ (.p.[.t E.w VXtXM.VXi ; mXG.M.hXl d.s.4X5X8 uXH.G.hX+ H 8X_.cXcXy [...CX*XF.z v _./ + iX$.[ $.%.%.%.B.",
"&.%.%.%.%.%.O.CXi ^.d d (././.p.).y T 2.kXM.aXU.  Q.tXn.aXk j.s.qXwX5 gXM.tXQ.. [._.{.cX/ K.m MX*XF.H.rX+ f ).+ hX} | @.%.%.%.N.",
"&.%. . .%.%. .VXK < q.7.) /.:.( )._.G r uXtX.XmXr ..aXn.*Xx j.s.qXwXu fXn.jXL M 8X).cXcXd T ;X-XF.H.fX1.2.I > 2.fX] [ &.%.%.%.B.",
"&.%.@.] [ &. .O.CXmXMXiXB w.^.^ ^ ).q.T D jXM.dXQ.w gXF.F.x j.d.qXwXu tXM.kX+ [._._.cXH B Y.iXv.*XrX1.2.uXhXhXgXO.} %.%.%.%.%.B.",
"&.%.%.] } #.[ O.@.] ] %.lXy n p z 3 _.Z F Q.tXS.aX: =XF.F.K ,Xj.qXwXk *XtXU.i cX_.}.[.+ J.iXr ..; r p hX} $.#.@.O.} #.%.%.%.%.N.",
"&.%.%.@.] #.@.@.@.] @.%.B.lXr =XM.r r.).i r gXM.G.x.Y rXF.Y 1X&XqXNXl F.uXz E.6X`.cXi K uX*Xr xXE.+ lXM.@.#.%.%.@.@.%.%.%.%.%.B.",
"&.%.%.#.[ %.%.#.@.[ #.%.%.-Xx.x.2.O 8.p.L.: x.G.M.aXw aX*XK 1Xh.qXwXl M.-X< 9XR.[.W.p hXrXb.; P c P -X%.%.%.%.%.%.%.%.%.%.%.%.B.",
"&.%.%.%.%.%.%.#.%.%.%.%.%.M.E.M n 3 ).8.a.r.z uXS.yXY U.rXz 1Xh.qXwXl D.3.2.2XR.[.p :XgXD.*XO s 2 I -X%.%.&.%.%.%.%.%.%.%.%.%.N.",
"&.%.%.%.%.%.%.%.%.%.%.%.%.S.Y./ C , _.^.8.).w.X.eXG.hXD uXx 1Xh.qXwXl $Xr 6XR.`.B $XgX*XF.T.. U 8 T -X&.%.%.%.%.%.%.%.%.%.%.%.N.",
"&.%.%.%.%.%.%.%.%.%.%.%.%.Z.J.8.5.3 C ).).8._.=.U.*XaXY Q.l 1Xj.qXwXk 4.I W.R.) 2.hXD.F.=Xz r y.5.2.-X%.%.%.%.%.%.%.%.%.%.%.&.B.",
"&.%.%.%.%.%.%.%.%.%.%.%.oXxXJ.U U t [.C _._.r.[.b =X*XuX..k ,Xj.qXqXl k %Xt.).K hX*XD.=Xz :X6 T c E.CXvX>.%.%.%.&.&.%.%.%.%.%.B.",
"&.%.%.%.%.%.%.%.%.%.|.+XG B u e e o % o f }.[.R.`.m rXuXJ k ,Xd.4XwX5 l W.y.Z :X-XD.-Xz u m ; d 3 B G L mX*.%.%.&.%.%.%.%.%.%.B.",
"&.%.%.%.%.%.%.%.%.%.hXK `.3X9X9X9X6X6XR.d 8.[.`.r.^ 2.b.t + e.3.i.a.. U y.U Z x.x.;Xm N %X6X6X9X9XzX6XW.2.iX%.%.&.%.%.%.%.%.%.B.",
"&.%.%.%.%.%.%.%.%.%.gXX.q.c Z Z B n c U 3 $ 2 a a g a a a 9 & * & = & - = a * a a a % . 5 c c N B u i 7.2.gX&.%.%.%.%.%.%.%.%.B.",
"&.%.%.%.%.%.%.%.%.%.-XxXm y `.w.5.L o 2 g ` :./././././.:.:.:.:.:.:.:.:.:././.:.:.;.` f 5 k e.e.6XP b T Q.S.%.%.&.%.%.%.%.%.%.B.",
"&.%.%.%.%.%.%.%.%.%.%.M.xXG 9X6X4XW.u ` ` ` -.:.:.;.;.;.;.;.;.;.;.;.;.;.;.;.;.;.;.` ` R V N g.W.BX7.2.;XfX%.%.%.%.%.%.%.%.%.%.B.",
"&.%.%.%.%.%.%.%.%.%.%.%.hXM 9X6X4Xg.s ! ` ` ` ` ;.;.;.;.;.` ` ;.;.` ` ` ` ;.;.;.;.` ` ` R Z 1Xg.BX9.T -X%.%.%.%.%.%.%.%.%.%.%.B.",
"&.%.%.%.%.%.%.%.%.%.%.%.hXm 9X2X&Xf.8 R Q Q W W E E E E E E W Q Q Q E E E W Q Q Q Q Q Q R K 1Xg.BX9.I F.%.%.%.%.%.%.%.%.%.%.%.B.",
"&.%.%.%.%.%.%.%.%.%.%.#.hXm 6X%X&Xs.2 R E W W E W W W Q W Q Q ! Q Q Q Q Q Q Q ! ! ! ` ` R Z <Xg.cX7.I S.%.&.%.%.%.%.%.%.%.%.%.B.",
"&.%.%.%.%.%.%.%.%.%.%.%.gXm 6X%X&Xs.o @ # # # # # & & & & * * - - = * * * * * & & * * & % N g.i.9X7.I Z.%.%.%.%.%.%.%.%.%.%.%.B.",
"&.%.%.%.%.%.%.%.%.@.#.%.gXm 6Xg.&Xs.4 S 7.I.I.I.I.U.x.x.x.x.U.U.I.U.J.U.U.U.U.U.I.I.Y.x.q l k.u.8X7.L .X%.%.%.%.%.%.%.%.%.%.%.B.",
"&.%.%.%.%.%.%.%.@.] O.&.gXm 6Xu.g.s.4 <.<.I.=X:X;X;X;X;XiXiX;X:X;XiXiX:XiXiXiXiXiXmXmXT.x l h.u.8X6.L Z.&.&.%.%.%.%.%.%.%.%.%.B.",
"&.%.%.%.%.%.%.%.&.} ] O.gXm 6Xu.&Xf.4 <.<.,.,.,.,.3.$Xb.4.3.3.b.b.3.3.=X$Xb.b.4.$Xb.3.,.Y x k.u.8X6.I .X%.%.%.%.%.%.%.%.%.%.%.B.",
"&.%.%.%.%.%.%.%.%.&.} O.gXM 6Xu.4Xg.4 <.<.,.,.,.,.,.4.3.3.3.,.4.4.3.4.b.4.3.3.3.4.3.,.,.X.l <Xi.8X6.L .X%.#.%.%.%.%.%.%.%.%.%.B.",
"&.%.%.%.%.%.%.%.%.#.[ ] gXm 6Xu.4Xg.; > < < ; ; ; ; : : < < < < 6 6 6 6 6 1 1 1 < : ; ; w k <Xu.8X8.I S.%.[  .%.%.%.%.%.%.%.%.B.",
"&.%.%.%.%.%.%.%.%.%.[ ] gXm 9X%X0Xg.4 5.q.8.8.8.w.w.w.w.q.q.w.w.K.K.L.K.K.K.w.w.r.w.6.5.S k <Xg.cX8.L .X%.[ { %.%.%.#.%.%.%.%.B.",
"&.%.%.%.%.%.%.%.%.%.%.@.gXF 6X%X0X&X5 r.y.y.y.y.`.`.`.`.`._._._._._._._._.).).R.y.y.t.6.5.N <X%XcX8.L .X%.[ | #.#.+. .%.%.%.%.B.",
"&.%.%.%.%.%.%.%.%.%.%.%.gXm 7X%X4X&X5 5.e.r.i.4X4X4X4X2X2X2X3X3X3X3X2X2X3X3X3Xr.r.u.u.u.<.N <Xg.cX8.I M.&.[ O.#. .] +.%.%.%.&.B.",
"&.%.%.%.%.%.%.%.%.%.%.%.fXG 6X%X0X4X5 r.6.6.i.u.u.u.i.i.u.i.i.y.i.i.t.y.y.y.y.y.i.i.u.u.e.A <Xg.8X/ T v.&.[ O.&.[ [ %.%.%.%.%.B.",
"&.%.%.%.%.%.%.%.%.%.%.%.-X9.J.6X&Xu.; 8 8 8 t 8 8 8 8 6 6 6 6 6 6 6 6 8 6 8 8 8 8 8 u 5 5 5 h.g.8XB :X] &.&.&.#.] @.%.%.%.%.%.B.",
"B.%.%.%.%.%.%.%.%.%.%.%.%.MXy 2X%Xb BXmXmXnXnXnXnXhXhXhXhXhXhXhXhXhXhXhXhXhXiXhXhXhXiXhXnXE.Z g.w.b CXO.&.&.&.&.O.%.%.%.%.%.%.B.",
"&.%.%.%.%.%.%.%.%.%.%.%.%.gXJ.7.X.J.hX%.%.%.%.%.%.%.%.%.%.%.%.%.%.%.%.%.%.%.%.%.%.%.%.%.%.mXG e.d 6XS.%.%.%.%.*.&.*.%.%.%.%.%.$.",
"&.%.%.%.%.%.%.%.%.%.%.%.%.%.uXX.J iX%.%.%.%.%.%.%.%.%.%.%.%.%.%.%.%.%.%.%.%.%.%.%.%.%.%.%.%.iX2.2.-X%.%.%.%.%.%.%.*.*.%.%.%.%.$.",
"B.&.%.%.%.%.%.%.%.%.%.%.%.%.%.%.%.%.%.%.%.%.%.%.%.%.%.%.%.%.%.%.%.%.%.%.%.%.%.%.%.%.%.%.%.%.#.Z.%.%.%.%.%.%.%.%.%.%.%.%.%.%.%.B.",
"A.C.C.C.V.C.C.C.C.C.V.V.C.V.V.V.V.V.V.V.V.C.V.V.C.V.C.C.C.C.V.C.C.C.C.V.C.C.V.V.C.C.C.C.V.V.V.V.V.V.V.V.C.V.V.C.C.C.C.C.C.C.C.A."
};
