/* XPM */
static char *exit[] = {
/* columns rows colors chars-per-pixel */
"64 64 45 1 ",
"  c #2D273F",
". c #333D49",
"X c #4C5254",
"o c #425E57",
"O c #517B4E",
"+ c #4C5A6F",
"@ c #757171",
"# c #588E29",
"$ c #5F992B",
"% c #60962D",
"& c #629C2C",
"* c #659D31",
"= c #66A22D",
"- c #69A42F",
"; c #66A231",
": c #6BA533",
"> c #6EA934",
", c #6EA738",
"< c #72AD36",
"1 c #73AE39",
"2 c #76B137",
"3 c #78B437",
"4 c #76B039",
"5 c #7DB539",
"6 c #7EB83B",
"7 c #7EB940",
"8 c #80B73F",
"9 c #80BA3D",
"0 c #80B940",
"q c #CA9B69",
"w c #ECCA7B",
"e c #5F4285",
"r c #7750B9",
"t c #5D68A3",
"y c #655FC1",
"u c #9E4998",
"i c #A55B8D",
"p c #CD70AF",
"a c #A584A7",
"s c #9AA0B4",
"d c #A4A1A1",
"f c #C48084",
"g c #F7EBA7",
"h c #848EE7",
"j c #90A6F3",
/* pixels */
"<5555555555>555<45514:5145555555544>5<4555555555444554>5>6665555",
"5555554<511425515555415>15555555444>5556555555555,>454>>16555555",
"5555555<<<15:5555555555>>4eee:45>1tte6666654>5554>:>465>46415555",
"55555652>:45<5555555555>>ehhhe45>ehhhe6665511,41>;>>466>47444455",
"555556655<15555555555551ehhhhhe4+hhhhhts6651::1>:,,>46655556><55",
"6555555554555555555555sehjjjjhydthjjjjhts654:::::44146555555>>55",
"9665<45555555555<55555@yhjjjjhhhhhjjjjjhe655>:1>>55675555555554:",
"5965<5555555541415556sthjjjjjjjhhjjjjjjhys656,5555555555555555<:",
"<65<5555554541<:55555eyhjjjjjjjhjjjjjjjhhe55655665655555555555<>",
"166665saaaaaa@<:55555eyhjhhhjjjhjjjhhjjjhe5566666saaaaaaa57555<4",
"45566auuuuuuuusss5555ehhhhhhhjjhjjhhhhhjhe5556sssuuuuuuuua155555",
"5555suupppppppuuu+a4>eyyyhhhhhjhjhhhhhyhye55ssuuuppppppppua15455",
"5555upppppppppppuuuiseyyyhhhhhhphhhhhyyyyesauuuuppppppppppud4145",
"5555uppppppppppppuuueeyyyyyyhhhphhhhyyyyyeeuuuupppppppppppud4155",
"5555uppppppppppppuuuueyyyyyyyhyprhhyyyyyyeuuuuppppppppppppud5551",
"1555uppppppppppppuuuuueyyyuuurrpuuuupryyeuuuuuppppppppppppud5564",
">415uuppppppppppuuuuuuerruppuupppuuuprrreuuuuuuppppppppppui61666",
"5,>15uppppppppppuuuuuuerrruppuppppppurrreuuuuuuppppppppppud55766",
"6>>41uuppppppppppuuuuuurrupppppfupppurrruuuuuupppppppppppud56767",
"5114>uuppppppppppppuuuurrupppppfupppprrruuuuuppppppppppppud51606",
"65555auupppppppppppuppuerruppfpfppppurreuppuupppppppppppua664666",
"55655duuuuuppppppppppppurrrpfqpfiqfurrrupfppuppuppppppuuu5446655",
"555555suuuuppppppppppppiefuiqwfffwqfraeuppppppppppppuuuua5117755",
"6555ssaeuuuupppuppppuppiiwifqqifiqqfuwfupuuppppuupppuuuess116155",
"56ssrrreeuuuuuupppppppuuuiiuiwqqqgfiufiuupppppppupuuuuuerres6<5<",
"6syyrrrreuuuuuuuppppppfquuiffqgggqffiueqfppppppuuuuuuurrrrryt56>",
"6yhhrrrrreuuuuuuppppppfqqeiqwwgggwwqiiqwfppppppuuuuuuerrrrrhhys4",
"ehhhrrrrrreuuuuuuuppppifqqfqwwggggwqffwqippppuuuuuuuerrrrrrhhhy5",
"ehhhrrrrrrreeeeuuuuuiuuiqqqwwgggggwwfqqiuupuuuuueeeerrrrrrryhhy5",
"ehhyrrrrreeeerreeeeeeeeiqwwwwggwggwwqwqieueuueerrreeeerrrrrrhhy5",
"ehhrrrrryyyyyyyrrreruuuufwwqwgwwggwqwwfuuuueerrrrryyyyeerrrrhhe5",
"arrrrrrehhyyyyyrrrrrrruriqqqwwwwwwwqqqirrurrrrrrryyyyhherrrrrrs5",
":arrrrehhhyyyyyrrurrruuuuqwqwwwgwwwqwquuuurrrurryyyyyhhherrrra55",
":4aeeehhhhhyyyrruuuuppppufqqwwwgwwqqqfuppppuuuryryyyhhhhherra555",
"1555stjhhhhhyyrrrppppppuuuifqqwwwqfffuupppppppryryyhhhhhjys<5566",
"4555stjjjhhhyyhhhppuuuuuuuuififffffueuuuuuuuuahjyyhhhhjjjts;&666",
"5555thhjjhhhhhhyyruuuuppueeifiifiifueeuppuuupryyhhhhhhjjhht>2465",
"5655thhhjjjhhhyyruuuupurreepppfffiipeuuuppuuuryyyhhhjjjhhht3>255",
"5544thhjjjjjhyyyyrrrpuureuupppfffppuuueuuuprrryyyyhhjjjjhht6&355",
"5511thhjjjjhhhhhyrrrrrrruuuppppfpppuuuueruurrryyhhyhjjjjhht>:355",
"1544thhjjjjhhhhhyyyrrrreruuppppfpppuuuuerrrrryyhhhhhjjjjhht:5555",
":555ehhjjjjhhhhhyyyrrrerrrrpppppppuprrrrerryyyyyhhhhjjjjhht:3355",
":452eyhjjjjhhhhhyyyrrerrrryupppppppyyrrrreyyyyyhhhhjjjjjhht<2:>5",
":4552ehhjjjjhhyyyyyeerrrryyyhhhphhhyyyrrryeyyyyhhhhhhhhhhys32:<-",
">5554:ehhhhyyyyeees4eyyyyyyhhhhhjhhhyyyyyyestyyyyhhhhhhhht<3=:2-",
"2555544eeeeeees:5651+yhhhyhhhjjhjjhhyyyhhyt$#sssayyyyyyys5<2:22>",
"4555555544444:4,5555+yhhhhhhjjjhjjjhhhhjhy+$$*5%&$&45dd5555<<<><",
"55555555<4<45>54>44:4ehjjjjjjjjhjjjjjjjjhed&>5555555555555555<<5",
"5555555544>46>54:14>deyhjjjjjjhhjjjjjjjhyt1:15555554<45555570068",
"5555555555455>4ddXXXXeyhjjjjjhyyhjjjjjjhys>455555441>15555560055",
"552455555566644+ooooooeyhjjjhyyeyhjjjjhye51555555141><5555560015",
"55<<5>45555565.OOOOOo.  yhhhyye eyhhhhy   ....55755445555555<566",
"55556<555555d.OOOOOo+++  eyyye  +ayyye .++XooX.5755555555555><46",
"5555<>555555.OOOOOOooo+ .  ee . s5@   ...+Xoooo.74155555555455>6",
"5:552>24555>.OOOOOOOoooX+.45@++.s55  +..++XOOOOo 555555555<>52>5",
"5>555<>>555+oOOOooOOooooX.><+XX+s5s ...++XoOOOOO.555555555<:5:<6",
"655555<>555+oOOOoooOoo+  .<+.XX.s5 .++++ooooOOOO.s5><55555<>5:64",
"6555554<25>+oOoooo.   s<2>4++oo.s56+ .X+ooOoXOOOo+1:><:554155:61",
"55555554>6>+oOo.+.5551<44>2+Xoo++55+. .oooOoooOOo+41>:1554555<55",
"55555555<>4+ood5555554<>4555.oOo+++..+5....ooooOo+44>>1555555656",
"555555552>4ds2555555154<5555dXoOOo+++s54>54. .ooo+<41:1555555566",
"5555555554>55>666554:4552<555dXoooX@d554>564:<...d>1555555555576",
"55555445555665566544:>552<5555d+@@@5<1551>52>54>15>1555555511556",
"56551><55556656655>,4:4<>6555555555<>4665454<54>15455566655:*555"
};
