/* XPM */
static char *floor32[] = {
/* columns rows colors chars-per-pixel */
"64 64 31 1 ",
"  c #467721",
". c #4F8224",
"X c #528525",
"o c #558B26",
"O c #588D26",
"+ c #558529",
"@ c #588E29",
"# c #5A9127",
"$ c #579028",
"% c #5F992B",
"& c #60962D",
"* c #629C2C",
"= c #659D31",
"- c #66A22D",
"; c #69A42F",
": c #66A231",
"> c #6BA533",
", c #6EA934",
"< c #6EA738",
"1 c #70A737",
"2 c #72AD36",
"3 c #73AE39",
"4 c #76B137",
"5 c #78B437",
"6 c #76B039",
"7 c #7DB539",
"8 c #7EB83B",
"9 c #7EB940",
"0 c #80B73F",
"q c #80BA3D",
"w c #80B940",
/* pixels */
"27777777777,777267736>7367777777766,726777777777666776,7,8887777",
"77777762733647737777637,37777777666,7778777777777<,676,,38777777",
"777777722237>7777777777,,6777>67,36,78888876,7776,>,687,68637777",
"77777874,>6727777777777,,7777>67,2,,788887733<63,:,,688,69666677",
"77777887723777777777777377777>66,6,,76388873>>3,><<,68877778,277",
"877777777677777777777777777777,>677776388876>>>>>66368777777,,77",
"q887267777777777277777777778777>777787788877,>3,,77897777777776>",
"7q87277777777636377787777>7877767777788888878<77777777777777772>",
"287277777767632>777777763>6777777777688887778778878777777777772,",
"3888877777133<2>77777777,><3777777772788777788888778787777977726",
"67788877777<>63>777777776>>388777777,678777778qq9999987777377777",
"77778833677<>>>37776,7776>>38787777762773777788q7777798777337677",
"77778733>67<>><3776637663>>3877777777637>77377887787667977636367",
"7777777,>363>>33776676<>33>387778877777>67>387788ww7733779776377",
"7777777>>,37>>77776676>>>37777788887777>66>389998qq873<639777773",
"3777773>>6777777777367>>>27777888787777,63,38999798776<637997786",
",637773>>6777777776237<>>>3777787,72,777226377779887777<<7783888",
"7<,377677777777777736363,,3777777272>7777677778777777773<<377988",
"8,,637787777777777337327377777777774>788777777773777777766778989",
"7336,7787777777776>3772737736777778776688777777737777777777738w8",
"877777777777766776<7337777733766877283378877776>7667777777886888",
"778777777777767676,7>37777777767777,86377777773>7337777777668877",
"777777888877887,7733,677777777277746,6777776,62>7367777777339977",
"877777887873787,773>3777777777>77727367777772,,>6,73,37777338377",
"78788877>66,766<77777777777777>7228,62677774222267742,2773338272",
"887777777333766337777767777777,7228,426777722777777764,36>37478,",
"8888888883677667,77777,27678887,2676,>4777227887777774:>,,687786",
"88888888788876677777777773,388826777,>2666+X,777777775:>><687777",
"88888877>77887787777687666<3888677762>*%XX:@o&877754773<<3777777",
"88863766>67777787776,677683388888776>>:*%%*%%%,842oXo%8636777777",
"7886,86::677776787363>68866788888776>>:******@&4OO#--o.688877777",
">264386:>6777>6676>6,>687>78888877764%.%******%-*-----*X37777777",
">,,4886:,677777,76>7>>687788877787764>@@@*************%+37777777",
">677886:,267777>76>7,,6777887777777>&@X.+@@@****%%%**%X+37777777",
"3777776:366276737766677788888777886%@@%%%@+@%**%ooo*%%oX@7727788",
"677777777,627,277776<76678737773676%%*--%@@@o*-%oX%@XXXoX26:*888",
"777777887772,,27777777777776667>>4,%%***@@#o@@@%*o%*%%%OXXo,4687",
"787777,888777,27777777777777762>2=@%%%****&@**%%*%%@%**o%*>5,477",
"776676>777777,3777777777777776:,76>%%%%*****%%%%%%#oXXXX*>,8*577",
"773376>7787777777777<777777777=,>6%.@%%*****%%%%%%#ooOOOXO*,>577",
"37664-,77777777877773727777777,,,>%$o%o@**@@%%%%%%%#*-*>22,>7777",
">7774-,277777778877787>67777776,<66>*.o@%*%%++%%%%%o%*#255;>5577",
">674>;>,77777667777787><<,77877666778@%***@@XX@ooo%>**O255-24>,7",
">6774-,67777766377377>>,:377777777777%%%%@XXXXXoXXo%*,5574>54>2;",
",7776>,47666376>88666>,7,677777777766>%o. @%XXX%%%%>67757225->4;",
"477776666666,63>7873,668,67677777773677,>=@%@+%@%%%677777724>44,",
"6777777766666>6<77776787776,77777776777,>3=%%=7&*%*67777777222,2",
"7777777726267,76,66>67878877778776667776>3,*,7777777777777777227",
"7777777766,68,76>36,,677777777766=,787776,3>3777777626777779ww80",
"7777777777677,63,677,3<67877877,6>36777772,677777663,3777778ww77",
"7746777777888663777773,688887777,>6>6777773777777363,2777778ww37",
"77227,6777778777777773,67,8877883,8:66>6777777779776677777772788",
"777782777777777873677<366,887777777:62>777779797977777777777,268",
"77772,777777677772677666,68878877767,>>77777797796377777777677,8",
"7>774,46777,,762>3777776346787777772,2377777786677777777772,74,7",
"7,7772,,777,,66->277777664,27777777,27777777886687777777772>7>28",
"8777772,777,,,,:>2777766672;22747777777777777777787,2777772,7>86",
"8777776247,76:64,27877224,66;,427787773377877777773>,2>776377>83",
"77777776,8,76>76667773266,46>>2277777766772777777,63,>3776777277",
"777777772,6774777777762,677763-,6777777726,667777,66,,3777777878",
"777777774,67747777773762777776*>67777776,766626672263>3777777788",
"7777777776,77,888776>677427777:>67777776,786>26,37,3777777777798",
"77777667777887788766>,7742777777777723773,74,76,37,3777777733778",
"78773,277778878877,<6>62,87777777772,6887676276,37677788877>=777"
};
