/* XPM */
static char *floor[] = {
/* columns rows colors chars-per-pixel */
"64 64 34 1 ",
"  c #8EC6A4",
". c #8FC6A9",
"X c #91C6A6",
"o c #94C6AC",
"O c #99CDAB",
"+ c #98D1A5",
"@ c #9CD3AD",
"# c #97CCB1",
"$ c #99CDB0",
"% c #9DD4B1",
"& c #9FDAB0",
"* c #A0D7AE",
"= c #A2DAAE",
"- c #A1D6B2",
"; c #A4DCB2",
": c #A8DDB3",
"> c #AAE3AF",
", c #A7E0B3",
"< c #ACE4B5",
"1 c #AFE8B8",
"2 c #AFEBB8",
"3 c #AFEBBA",
"4 c #B0E7B7",
"5 c #B2EEB2",
"6 c #B8ECB3",
"7 c #B0EBBE",
"8 c #B8EEB8",
"9 c #ADE7C2",
"0 c #ADE9C2",
"q c #A7E5C9",
"w c #A8E5CA",
"e c #B2EAC0",
"r c #A5E3D1",
"t c #AAE3D2",
/* pixels */
"777577777772777557777777757777777277777777777777777777777227722w",
"7555555555555555555555555555555555555555555555555555555555555559",
"7555555555555555555555555555555555555555555555555555555555555550",
"7555555555555555555555555555555555555555555555555555555555555550",
"5555555555555555555555555255555555555555555555555555555555555559",
"5555555555,;5555555555555555555555555555555555555552555525555559",
"5555555555;%5555555555555555555555555555555555555252555555555559",
"555555><55;@55<<555555555555555555555555555555555555555555555550",
"555555=@<5-@5<o-55555555555555555555555555555552;455555555555559",
"2555555$$2%O5@o<5555555555555555555555555555555<X<55555555555559",
"2555555;%;:*<o-555555777555555557555555555<<555<o<52555555555559",
"7555555<O;52<o=555557755555555555555555555;X<22<o<55<<5555555550",
"25555555<2555255555555555555577555555555557%%22<o<52@O5555555550",
"25555555555555555555555555555555577755555572.o2<X<5%.<5555555559",
"75555555555555555555555555555555555555525522oo<<o<<o@72555552229",
"75555555555555555555575555555555555555555552;o<255:o;55555555520",
"75555555555555575555557755555555555555555555; <222; ;75555555550",
"7555555755555555555557555555555555575555555522555527755555555550",
"7555555755555555555555555555555555555575755555755775555522555559",
"7555555775555555555555555555555555557755755555755522555555555559",
"7555575555555555555555555555555755557555555555575555555555555550",
"7555577555555555555555555555555555575555555555575555555555555550",
"5555557555555555555555555<<5555555577755555555555555555555555559",
"5555555555755555555555555;O5555555575555575577555555555555555550",
"755555555575557555555<555;@552<555555555777755555555555555555520",
"755555555575555555555o-55<@25-O555555555557755555555555555555529",
"7555555555555555555552O-2:O5:o<555555775775575555555552555555559",
"7555555555557555555555%o2;O2oO55555555555755555555555<X<55555559",
"75555555555575555555552O2<<<o:55555557555555555555525<X<55755559",
"755555;<555555555555554O;52;O<5555555775555575555<=52<X<52@45550",
"755555;;555555555555555555555555575557755555555552@@<2X2<$%<5559",
"75==55*;25@;55555555555555555555555555555555557555;o;2X<-o%75559",
"75<o@7*;2*o<55555555555555555555755555555555555555<#%2@2;$555559",
"754o$<@;<oo555555555555555555755557555555555555555<o#22<-$255559",
"755<X<<<<X<5555555555555555557557755555555575555555<<255<<555559",
"7552@452<@255555555555555555577577775555555555555555555555555550",
"7555555255555555555555555555557777555555555555575575555555555579",
"7555555555555555552255555557575557557575575575577557555555555559",
"7555555555555555555555555555555555555555555557557755555755555579",
"7555555555555555555555555555555555555757555557755555555577555559",
"7555555555555555555555555555555555555555555575555555777575555559",
"75555555555555555555555555555555555555=2555555775555557775555559",
"75555555555555555555525555555555555552X<555555757555557575555550",
"7555555555555555555555555555555552<557X<55<557755555555775555550",
"755555555555555555555555555555555<o,72X<<;o555555555555555555550",
"7555555555555555555555555555555555&o;<X2@ ;575555555555555555550",
"75555555555552225555555555555755552@@<=<@X2575555555555555555550",
"7555555555525=@55555755555555555555O@522oX2555555575775555555520",
"7555555555555&@5552255555555555555272552<27555555555575555555570",
"755555555<255;@552@+55555555555555555525555555555555555555555570",
"75555555<o;75;@57%@<55555555555555555555552555555555775555555550",
"755555557Oo;7-@5;o;555555555555555555555555555555555555555555550",
"7555555557O-7-@7-o2555555555555555555555555555555555525555555550",
"7555555552@o<<55%o75555555555555555555555555555555555@=555555570",
"7555555555*o7555@O75555555555555555555555555555555555@@555255550",
"75555555554<5555225555555255555555555555555555552@=55@%22;=55550",
"7555555555555557555555555555555555555555555555555;o;7@-5=X,55550",
"75555555555555575555555555255555555555555555555572@o7@;5@@555559",
"755555555555555555555555555555555555555555555555552o7772o<557559",
"755555555555555555555555525555555555555555555555557;7777:5555550",
"7555555555555555555555555255555555555555555555555555555778555549",
"7555555555555555555555555555555555555555555555555555555556655559",
"e755555555555555555555555555555555555555555555255555555555555550",
"twwwqwwwwwqqwqqqqqqqqwqqwqqwwwqwqqqqwwqqqqqqqqqqqqqqwqqwwwwwwwwr"
};
