/* XPM */
static char *p_e_floor[] = {
/* columns rows colors chars-per-pixel */
"64 64 70 1 ",
"  c #2D273F",
". c #47251C",
"X c #572A1D",
"o c #452923",
"O c #663326",
"+ c #7D3A26",
"@ c #793A2C",
"# c #5B423D",
"$ c #333D49",
"% c #4C5254",
"& c #425E57",
"* c #6A5752",
"= c #517B4E",
"- c #4C5A6F",
"; c #766661",
": c #757171",
"> c #904622",
", c #9C4424",
"< c #914B39",
"1 c #B04C21",
"2 c #CA5D22",
"3 c #E87224",
"4 c #E0702D",
"5 c #AA6756",
"6 c #9D6F64",
"7 c #897A77",
"8 c #D77144",
"9 c #629C2C",
"0 c #659D31",
"q c #66A22D",
"w c #69A42F",
"e c #66A231",
"r c #6BA533",
"t c #6EA934",
"y c #6EA738",
"u c #72AD36",
"i c #73AE39",
"p c #76B137",
"a c #78B437",
"s c #76B039",
"d c #7DB539",
"f c #7EB83B",
"g c #7EB940",
"h c #80B73F",
"j c #80BA3D",
"k c #80B940",
"l c #CA8672",
"z c #EB9265",
"x c #5F4285",
"c c #7750B9",
"v c #5D68A3",
"b c #655FC1",
"n c #9E4998",
"m c #A55B8D",
"M c #CD70AF",
"N c #B59688",
"B c #A39794",
"V c #A584A7",
"C c #9AA0B4",
"Z c #A4A1A1",
"A c #ECA688",
"S c #E3A894",
"D c #C2B3AE",
"F c #D1B2A5",
"G c #848EE7",
"H c #90A6F3",
"J c #ECCEC0",
"K c #EBD7CE",
"L c #F1EAE6",
"P c white",
/* pixels */
"uddddddddddtdddusddisrdisddddddddsstdusdddddddddsssddstdtfffdddd",
"ddddddsudiispddiddddsidtidddddddssstdddfdddddddddytsdsttifdddddd",
"ddddddduuu;...#ddddddddttsxxxrsdtivvxf*...ostdddstrtsfdtsfsidddd",
"dddddfdpt#OOOOXoBddddddttxGGGxsdtxG;;*O@@@O#;ysitettsfftsgssssdd",
"dddddffd7O@@@@@O#7dddddixGGGGGxs-GBXXX@@@@@.#ritryytsffddddftudd",
"fddddddd.<5N6+++O#7dddCxGHHHHGbZv#X@@@@@@@@@O*rrrssisfddddddttdd",
"jffdusdd.<lKF6++@O.7dd:bGHHHHGGG7X++@@FFF6+@O#ittddfgdddddddddsr",
"djfduddd.<lKKF5+@@O.*CvGHHHHHHH;XO++<5JKK6++O#ddddddddddddddddur",
"ufdudddd.<lKKJF+@@@X#**********#@+++6JKKK6@@O#dffdfdddddddddddut",
"iffffdCV.<lKJJJS<@@+>>>>>>>>>>>O@+<5FKKKK6+@O#fffCVVVVVVVdgdddus",
"sddffVnn.<lJJJJS<,2233333333334>>,,SJKKKK6@@O#CCCnnnnnnnnViddddd",
"ddddCnnM.<lJJSl81333333333333333332lSJKKK6@@O#nnnMMMMMMMMnVidsdd",
"ddddnMMM.<lJF514333333333333333333221SJKK6@@O#nnMMMMMMMMMMnZsisd",
"ddddnMMM.<5J5,13333333333333333333222SJKK6@@O#nMMMMMMMMMMMnZsidd",
"ddddnMMM.<<,14333333333333333333333328lKK6+@O#MMMMMMMMMMMMnZdddi",
"idddnMMM.<<,33333333333333333333333342lKK6++O#MMMMMMMMMMMMnZddfs",
"tsidnnMMoO<,333333333333333333333333338ll<+@O#nMMMMMMMMMMnmfifff",
"dytidnMMM*>333333333333333333333333333221>+@O7nMMMMMMMMMMnZddgff",
"fttsinnMM*>333333333333333333333333333331,+.*nMMMMMMMMMMMnZdfgfg",
"diistnnMM*,33AJz3333333333SJz333333333331,X;7MMMMMMMMMMMMnZdifkf",
"fddddVnn*1433SLA3333333333JLA333333333331,.DnMMMMMMMMMMMnVffsfff",
"ddfddZnn.43333433333333333444333333333331,.DnMMnMMMMMMnnndssffdd",
"ddddddCn.43422243333333333322223333333331,.DMMMMMMMMnnnnVdiiggdd",
"fdddCCVx.434+#o,33333333334>..O2333333331,.DMMMnnMMMnnnxCCiifidd",
"dfCCcccx.4317PLo2333333333XBLL.+233333331,.DMMMMnMnnnnnxccxCfudu",
"fCbbccc7X4317PLo2333333333XBPLo.>33333331,.DMMMnnnnnnncccccbvdft",
"fbGGcc*>4331*DDo2333333333XBDD..>33333331,.DMMMnnnnnnxcccccGGbCs",
"xGGGc*,23331...o2333333333X.....+333333321O7BnnnnnnnxccccccGGGbd",
"xGGG*>233332>..X4333333333O.....+3333333341+7nnnxxxxcccccccbGGbd",
"xGGBO433zS432,1433333333333>...+23333333334>@7xcccxxxxccccccGGbd",
"xGGBO4zAKPSz444>>+>zA8333332111233zzzzz833341*ccccbbb######o7Gxd",
"Vccc*>JLPPPJ888ooo;PPLJ3333333zzzAPPPPPKA3331*cccbbbb;;;;;*#;cCd",
"rVcccoJLPPPPPPLooo7PPPLAAAAAAALPPPPPPPPPL4431*cc;###DPPPPPLFoVdd",
"rsVxxx*DKLPPPPPL;BLPPDLPPPPPPPPPPPPPPPPPPLA41*cbNNBFKPPPPPLDoddd",
"idddCv7;7FKPPPPP7LLLLoDPPPPPPPPPPPPPLKKKKJl2>oo*FJPPPPPPPLB;ddff",
"sdddCvHB7NFLLPPPBoooo7LPPPPPPPPPPPPPLKJJJFOX.*DKPPPPPPPPPJ;#9fff",
"ddddvGGHH*#FFLLLKDDDDDLPPPPPPPPPLJJJJF7777*.ONLPPPPPPPPLJN7tpsfd",
"dfddvGGGHHH*oJJJJKKJJJJJJKKKKKKKJFFFFB;;;B7>2SPPPPPPPPPLDovatpdd",
"ddssvGGHHHHHG7;;;BBNNNNNNNNNNNNNNooooBxnnDO23APPPPPPPPPLDovf9add",
"ddiivGGHHHHGG7;;;;*o..o........o*MMnnnnxc#23344zPPPPPPPLDovtradd",
"idssvGGHHHHGGGGGbbb*NFFFFJFN111>;MMnnnnxX233333zPPPPPPPLNovrdddd",
"rdddxGGHHHHGGGGGbb7#FJJJJKKS22216MnMccc7>4333334zzJPPPPLNovraadd",
"rsdpxbGHHHHGGGGGbbXFLPPPLLLJ3334,XMbbcB+333333333zLPPPPLNovuprtd",
"rsddpxGGHHHHGGbbbbODPPPPPPPK33334>#BbbB+333333333zPLzAPLNoCapruw",
"tdddsrxGGGGbbbbxxO2KPPPPPPPK333331+Bb*+2333333333zJJ3APLDouaqrpw",
"pddddssxxxxxxxCrdX2KPPPPPPPK333332>Bb#,33333333333333zPLNouprppt",
"sdddddddsssssrsydO4KPPPPPPPK333332>BG#,333333333333334Al6oduuutu",
"ddddddddususdtdstO4JPPPPPPLJ333332>7H#,33333333333333321+oddduud",
"ddddddddsstsftdsrO4zLPPPPPS33334241#*+233333333333333211+odgkkfh",
"ddddddddddsddtsZZO44AKPPPJz333341321o>333333333333321111+odfkkdd",
"ddpsddddddfffss-&O333JLLLz3333341321o>33333333333321111+#ddfkkid",
"dduudtsdddddfd$==X,23888824433421321.>33333333332211111O*dddudff",
"ddddfuddddddZ$===.X,2211111144211321.>3212212222111111Oo*dddtusf",
"ddddutdddddd$=====#+,,++@++O,1111111.+22111111111111,+*ddddsddtf",
"drddptpsdddt$======.@@@.#**o+,111111.O>111111111111,>;ddddutdptd",
"dtddduttddd-&===&&=oO@O.7$t#XO>111,+7B*,111,,,,,1,.#odddddurdruf",
"fdddddutddd-&===&&*O@OO.7$u#.O>,1,+o---...........dtudddddutdrfs",
"fdddddsupdt-&=&&&&.O@X.uptsoO@@@@@o- $%-&&=&%===&-irturddsiddrfi",
"dddddddstft-&=&$-$.....sstpoXOOO.;d-$ $&&&=&&&==&-sitriddsdddudd",
"dddddddduts-&&Zddddddsutsddooooo#--$$-d$$$$&&&&=&-ssttiddddddfdf",
"ddddddddptsZCpddddddidsuddddZ%&==&---Cdstds$ $&&&-usiridddddddff",
"dddddddddstddtfffddsrsddpudddZ%&&&%:Zddstdfsru$$$Ztiddddddddddgf",
"dddddssddddffddffdssrtddpuddddZ-:::duidditdptdstidtidddddddiiddf",
"dfddituddddffdffddtysrsutfdddddddddutsffdsdsudstidsdddfffddr0ddd"
};
