/* XPM */
static char *player_exit[] = {
/* columns rows colors chars-per-pixel */
"64 64 249 2 ",
"   c #5E3E62",
".  c #5D4758",
"X  c #6B4C5C",
"o  c #5B4C74",
"O  c #6B4F68",
"+  c #795A6B",
"@  c #695A75",
"#  c #755873",
"$  c #726675",
"%  c #7A6779",
"&  c #845B6D",
"*  c #926C6B",
"=  c #8D6D76",
"-  c #876979",
";  c #966A7A",
":  c #755C82",
">  c #7A6986",
",  c #7E758B",
"<  c #766D90",
"1  c #866B83",
"2  c #916A89",
"3  c #897587",
"4  c #8C7A8B",
"5  c #957989",
"6  c #876D94",
"7  c #8B7694",
"8  c #927C93",
"9  c #9A7C98",
"0  c #AA798E",
"q  c #977BA1",
"w  c #8F858F",
"e  c #8D8293",
"r  c #948395",
"t  c #9B8998",
"y  c #9B939B",
"u  c #AB8589",
"i  c #A68997",
"p  c #AC8B9B",
"a  c #B18B94",
"s  c #B9969C",
"d  c #998CA4",
"f  c #9994A7",
"g  c #9492B2",
"h  c #A689A6",
"j  c #A897A6",
"k  c #A69DA6",
"l  c #AB9CAB",
"z  c #B698A6",
"x  c #B492AE",
"c  c #AB98B6",
"v  c #9CABB2",
"b  c #A5A0A8",
"n  c #ACA2AC",
"m  c #B7A6AD",
"M  c #ABA6B3",
"N  c #B3A5B2",
"B  c #B6ABB7",
"V  c #BCAAB3",
"C  c #AFB8B7",
"Z  c #B9B6BA",
"A  c #C89C9C",
"S  c #F79D9D",
"D  c #DCA599",
"F  c #E4A997",
"G  c #C59AA7",
"H  c #D89EA5",
"J  c #ED9DA0",
"K  c #C7A5A7",
"L  c #D4AEAC",
"P  c #C7AAB8",
"I  c #D4ACB8",
"U  c #CAB5B8",
"Y  c #D8B5B9",
"T  c #E9ACA7",
"R  c #E9B6A6",
"E  c #EBAFB4",
"W  c #E8B9B9",
"Q  c #95CBAA",
"!  c #97CBAB",
"~  c #9CD3AD",
"^  c #9FD8AF",
"/  c #98CCB0",
"(  c #9ED4B1",
")  c #A1D9AE",
"_  c #BBCAB5",
"`  c #B8C8B9",
"'  c #A4DBB3",
"]  c #ABE3AF",
"[  c #ACE4B4",
"{  c #AFEAB4",
"}  c #AEEABA",
"|  c #B2ECB3",
" . c #B1EBBA",
".. c #B9ECB8",
"X. c #C3C2BC",
"o. c #DEC1BE",
"O. c #EBC3B8",
"+. c #F7CABB",
"@. c #FBD1B7",
"#. c #FCD5BC",
"$. c #FDD9BE",
"%. c #C0ECBB",
"&. c #B39BC2",
"*. c #A9A7C7",
"=. c #B6A4C7",
"-. c #B8B8C6",
";. c #AAB5D4",
":. c #B5B6D7",
">. c #B4B8E2",
",. c #CA9FCA",
"<. c #CBAACB",
"1. c #CCB3C5",
"2. c #C8B9C7",
"3. c #D6BAC5",
"4. c #CBB9D5",
"5. c #D8BAD8",
"6. c #E4BBC5",
"7. c #F3BCC5",
"8. c #E5BCD8",
"9. c #CDAFE2",
"0. c #CBB5E1",
"q. c #D6BBE6",
"w. c #EABBED",
"e. c #F6BBE3",
"r. c #BCC5C6",
"t. c #ADD3CD",
"y. c #B7C4D9",
"u. c #B9DED7",
"i. c #ADE9C3",
"p. c #A7E5C9",
"a. c #A9E5CA",
"s. c #B5E5C7",
"d. c #A8E3D2",
"f. c #B9E2D4",
"g. c #B0CCE6",
"h. c #B8C7E9",
"j. c #BBCCF3",
"k. c #BED3F6",
"l. c #C5C1C6",
"z. c #CDC3CD",
"x. c #D3C2CB",
"c. c #D9C7CA",
"v. c #D5D3CB",
"b. c #C8C7D6",
"n. c #D7C7D6",
"m. c #D4CBD4",
"M. c #D4CCDB",
"N. c #CCD7DA",
"B. c #D9D5DA",
"V. c #DCD4DD",
"C. c #EAC7C8",
"Z. c #F5CCC5",
"A. c #F9CCC7",
"S. c #F4CACB",
"D. c #E8D4CA",
"F. c #F7D4C7",
"G. c #FCDAC4",
"H. c #F5D3CB",
"J. c #F9D4CB",
"K. c #FBDBCB",
"L. c #ECCDD4",
"P. c #E8C8D8",
"I. c #F9CDD3",
"U. c #F9C3DC",
"Y. c #F6CADA",
"T. c #ECD4DC",
"R. c #E7D8D8",
"E. c #FAD3D3",
"W. c #FADDD3",
"Q. c #F7D6D9",
"!. c #CEEBD0",
"~. c #D9E7DC",
"^. c #C7F6D6",
"/. c #CCFCDA",
"(. c #EAE6CB",
"). c #F2E7CA",
"_. c #FCE2CD",
"`. c #FBECCE",
"'. c #FCF4C7",
"]. c #EAE4DA",
"[. c #FCE4D3",
"{. c #FCECD3",
"}. c #F9E7DA",
"|. c #F5ECDC",
" X c #E4F2DC",
".X c #FBF4D3",
"XX c #FCF8D4",
"oX c #FAF5DC",
"OX c #FCF9DC",
"+X c #C8CAE6",
"@X c #DAC4E3",
"#X c #DCC2EB",
"$X c #D6C9E8",
"%X c #C8D5E5",
"&X c #C5DCEB",
"*X c #CCDDEC",
"=X c #D7D8E7",
"-X c #DCDBE4",
";X c #C8CDF3",
":X c #D9CAF3",
">X c #CDD2F4",
",X c #EBC3E3",
"<X c #E6CBE8",
"1X c #F6C6E6",
"2X c #F9C3E4",
"3X c #F9CAE3",
"4X c #F5CAEA",
"5X c #E3D4E5",
"6X c #E9D3E5",
"7X c #E3DCE5",
"8X c #E8D8E8",
"9X c #EBDBEA",
"0X c #F4D9E5",
"qX c #E8CAF2",
"wX c #F3C2F1",
"eX c #E7D8F1",
"rX c #F2DEF2",
"tX c #CBE4EC",
"yX c #D7E9E6",
"uX c #D5E2ED",
"iX c #DCE4EC",
"pX c #CDF5E2",
"aX c #D7F6E3",
"sX c #CEE2F1",
"dX c #D4E4F1",
"fX c #D6E8F2",
"gX c #DCEAF4",
"hX c #E4E3EC",
"jX c #EAE5E8",
"kX c #F7E9E4",
"lX c #F2ECEC",
"zX c #E8F5E9",
"xX c #F6F3E5",
"cX c #FBF5E3",
"vX c #FCFAE4",
"bX c #F5F3EC",
"nX c #FAF4EC",
"mX c #FCFAEC",
"MX c #E3E5F2",
"NX c #E3EBF5",
"BX c #E9E8F4",
"VX c #EBECF4",
"CX c #F2EDF2",
"ZX c #F7E9F6",
"AX c #ECF2F8",
"SX c #F4F2F3",
"DX c #FCFBF4",
"FX c #F9F4F9",
"GX c #FDFDFA",
/* pixels */
" . . . . . . . . . . .|  . . . .|  . . . . . . . .|  . . . .!. X X!.f.*XuXuXfXfXfXdXuX&Xi. . .}  . . . . . . . . .{ {  . .{ } a.",
" .| | | | | | | | | | | | | | | | | | | | | | | | | | | |  XR.M :.NXhX2._ _ ` _ X._ x.m.hXNXf.| | | | | | | | | | | | | | | | i.",
" .| | | | | | | | | | | | | | | | | | | | | | | | | | | | VXr NXCXN r V Z Z X.U U X.X.B % l.hXAXf.| | | | | | | | | | | | | | i.",
" .| | | | | | | | | | | | | | | | |  XbXkX X| | | | | | | gXSX2.3 N bXmXvXvXvXvXmXmXDXDXjXz.3 N jXdX| | | | | | | | | | | | | i.",
"| | | | | | | | | | | | | | | | | | hXr 4 B (.| | | | f.AXz.r N T.mXmXvXvXvXcXoX|.|.mXmXDXDXR.U 3 m.NX| | | | | | | | | | | | i.",
"| | | | | | | | | | ] ' | | | | | ~.` z 3.j iX| | | tXVXN n SXDXvXOXOXvXvXOX{.).).D.vXmXmXnXmXmXjXt 2.fX| | | | | | | | | | | i.",
"| | | | | | | | | | ' ( | | | | | &X_ z C.i -X..| u.VXt 2.FXGXDXmXvXOXvXvXOXOXOXOXOXvXxXlXbXlXjXjXlX4 z.dX| | | | | | | | | | i.",
"| | | | | | ] [ | | ' ~ | | [ [ | i.V.+ p j 2.~.| VXX.N FXGXGXGXDXmXxXxXbXkX].|.OXOXvX].R.CXGXGXFXbXjXr -X| | | | | | | | | | i.",
"| | | | | | ) ~ [ | ' ~ | [ ! ) | | NXn G z t VXsXjX4 CXGXGXGXDXDXjX].DXGXGXGXFXT.c.D.I G z SXDXDXDXmX2.B dX| | | | | | | | | i.",
"{ | | | | | | ( ~ [ ( ~ | ~ ! [ | | &XV.5 U i hXAXN x.DXGXGXGXDXVXR.DXGXGXGXFXc.W C.W Z.E I 3.FXDXmXcXjX# MX| | | | | | | | | i.",
"{ | | | | | | ' ( ' ' !. X_ ) | | | i.SXp z i b.CX4 lXDXDXGXGXDXR.FXDXGXGXGXR.Y W.W.K.G.+.E s lXmXnXoXnXt z.*X| | | | | | | | i.",
" .| | | | | | [ ~ ' zXV.Z x.].| | | | SXN V P dXz.B DXmXDXDXDXbXjXGXGXGXGXGXV Q.K.G.G.G.#.+.H x.bXnXnXcXx.n AX| | | | | | | | i.",
"} | | | | | | | [ { -X4 x.h b.!.| ..bXV.h z 1.NXi m.mXmXmXmXmX].bXGXGXGXGXlXz E.G.G.G.#.#.#.W p nXbXDXFXjXt V.iX| | | | | | | i.",
"} | | | | | | | | ..z.N jXB C iX| SXN V L.T.R.VX4 lXcXvXvXvXmX].DXDXDXDXDXn.Y S.F.#.#.#.#.@.Z.s 9XFXDXDXDXSXe VX| | | | | | | i.",
" .| | | | | | | | | b.5 p i y hX(.7XV 3.z z t -Xi nXOXOXvXvX|.|.mXmXDXDXDXz a 0 W #.#.#.#.+.A G V nXDXDXGXGX` 7Xu.| | | { | | i.",
" .| | | | | | | | | dX*Xy.y.=.2.-X7X5 2 O M.MXi U cXOXOXOX|.(.vXvXmXmXmXR.I S.A.Z.#.#.$.F.F.+.Z.K c.DXDXGXGXl.m.*X| | | | | | i.",
" .| | | | | | | *XVXjXV.n.n.7XVXAXfX%Xb.y.iX2.- D.{..X{.{.(.cXvXvXvXmXmXU Q.W.H.K.F.$.$.$.F.F.S.L.z R.DXGXGXl.V.*X| | | | | | i.",
" .| | | | | | NXV.t l 2.x.V z r j m.V.7Xm.l - v..X).).).{.vXvXvXvXvXnXR.z - X + o.G.$.$.G.J.K X O P 3 kXDXGXN 7X&X| | | | | | i.",
" .| | | | | NXz.w R.nXnXDXDXDXSXV.n y y j x.lXmXOXXXXXXXOX|.cXcXcXD.I 5 . g ;.< z K.G.G.G.D.> *.M O + c.nXFX4 VXu.| | | | | | i.",
" .| | | | &Xm.r lXDXDXGXGXGXGXGXGXGXGXDXDXDXDXDXmXvXOX].s u K Y Y W P . m.%Xg.h.T.K._._._.}.y.y.=X4 + Y nXT.= lXMX*X| | | | | i.",
" .| | | | MX7 R.FXm.` m.VXGXGXGXGXGXGXGXGXGXGXDXDXmXcXV Y +.O.L Z.J.Y 2.jX+Xg.g.9X[._._.[.].y.*X=XU & 3.xXm z z m 2.MX| | | | i.",
" .| | |  X-X8 9Xl 2.n.l 3 -XVXGXGXGXGXGXGXlXlXSXlXmXnXm C.+.+.G.G.K.J.Q.P.5Xy.;.}.[._._.[.kXy.+XR.L.; L.U p p 0 - + N NX| | | i.",
"| | | | dX-X8 3 M.B 4 l.CXGXFXSXSXGXGXDXV.5 5 5 5 ].xXV Y +.D O.F.F.J.Z.S.L.V.V.}.[.[.{.{.xXV.R.T.L.p 1.z p G I Y C.= -X| | | i.",
"| | | | sXM.@ 4.r z.FXGXGXGXGXGXGXGXDXlX+ Y S.s 3.= U L.; O.+.+.F.F.F.Z.Z.A.H.W.[.[.{.}.}.}.}.}.}.T.p p i A F.Z.Z.Z.; b.| | | i.",
" .| | | | =X5Xt z.DXDXDXDXDXDXDXGXGXGXjX5 6.J.H.J.C.u z I = G Y L H.K.K.J.F.F.K._.+.T E H D.}.}.kXc.& u O.F.F.F.Z.K + -X| | | i.",
" .| | | | %X2.N DXDXDXDXDXDXDXDXGXDXDXSX5 Y K.W.K.F.H.K = p I 1.a s L.T.W.K.K._._.O.S S J [.}.xXT.3 A S.F.F.F.O.; r hXdX| | { } ",
" .| | | | VX3 CXDXDXGXGXDXGXGXDXGXDXDXFXx.& a o.H.K.H.H.S.P = P 5.x 1 m L.[._._._.K.T T H.W.}.U + P S.J.F.H.L = m.VX*X| | | | i.",
" .| | | f.V.j DXDXGXGXGXGXGXCXFXFXFXFXFXCX6Xm + 5 Y S.J.A.I.P.i <.<.l # % r m Y L.W.H.H.L.U 3 3 = 6.7.A.C.a 3 7XNXi.| | | | | i.",
" .| | | sXr.2.DXmXGXGXGXFX9XP.P.P.,X,X,X,X,X4XP.G X a L.E.E.E.6.6XrXCX7Xj 3.r 5 - & & X e Z v.~.Z G E W - N VXuX&X|  .| | | | i.",
" .| | | dXh m.mXmXGXGXFX6X4XW.[.W.W.Q.Y.Y.Y.Q.Q.Y.8.z - Y E.I.Y n.rXrXCX2.n.I I 6.L s a t V.aXaX~.i G + m.VX%X% iX} ~ { | | | i.",
" .| | | fX3 V.mXmXDXGX6X4X}.`.`.`.{.`.[.W.E.U.U.U.3X3X8.- p I 1 4.eXqXrX7XP L.U 3.W W P 3.y yXaXaX% % m.uXi P.% fX/ ( [ | | | i.",
" .| ) ) fX4 c.cXvXDXCX,XkX{.`.`.`.`.`.[.E.U.U.3X3X3X3X3X1Xh O c $X=XqXqX=X2.P.I.C.C.3.3.C.j N.pXyX$ m.NX-.M 1 -.sX/ ~  .| | | i.",
" .| [ ! tXB V OXOXnX5.4XxX{.'.'.'.'.{.}.Y.3X3X3X3X3X3X1X3X3X1 &.+X>X>X>X:.B L.I.S.S.S.S.L.1.C u.v @ hX&XuXgXfXdX' / | | | | | i.",
" .| | ! t.V.4 }.OX9X2 4XxX{.'.'.'..X{.E.U.3X3X3X3X2X2X2X3X1X8.: d b.%Xy.g b.L.I.A.A.A.I.T.n.$ e -.n AXfX! [ { [ ) ( { | | | | i.",
" .| | [ ! fX3 R.|.1.  B xX.X'.'.'..X{.E.U.3X3X3X2X2X3X2X1X1X1X5.x > o g y.b.P.I.E.E.E.E.0Xr., b.b NX*Xu.[ { | | [ [ | | | | | i.",
" .| | { ~ f.M.4 9X5 : 1 kX.X'.'..X.X{.E.U.3X2X2X2X3X3Xe.e.e.e.e.8.qX> :.h.b.T.Q.E.E.E.W.9Xn e M hX-.*X| | | | | | | | | | | | i.",
" .| | | | | *Xl Z # 5XO T.cX.XXX'.'..X[.I.U.3X3X2X2X2Xe.e.e.e.e.e.,X6 >.>.+Xn.V.P.T.T.T.7Xt -XFXd B &X| |  .| | | | | | | | | i.",
" .| | | | | | fXz.f CX1 2.nX.XXX.X'.'.{.W.I.3X3X3X3Xe.e.e.e.e.e.8.h o *.>.+X+X$X$XM.M.M.z.e hXFX9 Z &X| | | | | | | | | | | | i.",
" .| | | | | | | gXAXVXz.- lXvXXX.X'.'.'.`.[.I.U.3X3X3Xe.3X3Xe.8.6 g >.>.>.:.4.4.z.n.z.z.b.% l SX*X-.&X| | | | | | | | | | |  .i.",
" .| | | | | | | | | | MXV z.FXcX.X'.'.'.'.'.{.Q.Y.U.3X3X3X3X5Xq ;.j.;X;X>X+X$X5X5X7XyXyXyXyXr t VXN.AXzX%.| | |  . .| | | | | i.",
" .| | | | | | | | | !.=XCXl N nXcX.X'.'.'.'.).D.kX0X0X0X5.l g h.j.;X$X>X=X-X6X4X6XhXaXaX/.^.yXe k MXh.M VX..| |  .| | | | | | i.",
" .| | | | | | | | | gXN tXVX2.r x.R.(.D.D.U - + z m.2.d g :.>Xk.j.:X$X>X=X5X0X1X<XVXyX/.^.^.^.~.f r hX+X-.yX| |  .| | | | | | i.",
" .| | | | | | | | | fX` 2.h NX7Xz.N 3 4 h Z 7Xm.O f :.;Xk.k.k.k.;XeX$X*X5XT.Q.4X<XVXyX/.^.s.s.^.yXf e hX-.tX| | | | | | | | | i.",
" .| | | | | | | | | &XhXk t V.2.+XdXNXNXgX*XuXV.3 :X;Xk.j.j.;X:X:X#X$X7X6XQ.Q.4X<XeXiXpX^.^.^.^.^.yXe N fXf.| |  .| | | | | | i.",
" .| | | | | | | | | | u.MXn 9X9X<Xn.t L R R O.7X7 ;Xj.;X:XqXqXqXqX$X=X5XQ.E.Q.4XwXqXVXyX/././././.aXV.$ -Xu.| | | | | | | | | i.",
" .| | | | | | | | | | | gXj 9X9X<X@Xi T R R R NX7 0.:XqXwXwXwXw.#X$X9XQ.E.E.Q.4X4XqXeXiXyXaXaXaXaXaXzXM ` fX| | | | | | | | | i.",
" .| | | | | | | | | | | gXk 9X5X#Xq.9 D F F F uXU h qXwXwXw.w.q.$X9XP.E.E.E.Y.4X4XwX<XeXiXyXN.C C r.N.b.7 VX| | | | | | | | | i.",
" .| | | | | | | | | | | gXk 6X@X#X9.5 D F F F F NXd &.wXwXw.w.q.#X4XI.E.E.E.Y.4X1X4X4X5XP r z Y V , d b.% hX| | | | | | | | | i.",
" .| | | | | | | | | | | dXk 6X@X#X9.# & * * * * %XhX4 ,.w.w.q.#X4XY.I.A.I.I.Y.2X4X4X,X0 0 E W Z.W.U < , @ -X| | | | | | | | | i.",
" .| | | | | | | | [ { | dXk 6Xq.#X9.6 c -.b.b.b.b.tXVXk q ,.w.<XP.I.A.A.I.I.U.1X,X<.2 ; T E +.F.K.c.@ : d NX| | | | | | | | | i.",
" .| | | | | | | [ ! '  .dXk 6X5.q.9.6 =.=.b.=X*X=X=X=XdXM.j 3 x 6.S.A.A.I.Y.P.P h : # Y Z.F.G.G.W.P 3 M.NXi.| | | | | | | | | i.",
" .| | | | | | |  .~ ! ' dXk 6X5.#Xq.6 =.=.*.*.*.*.:.+Xy.:.hX2.. ; u u a u ; O 2.=.< n.W.K.K.K.W.C.% 7XgX .| | | | | | | | | | i.",
" .| | | | | | | |  .~ ) dXj 6X5.qXq.6 =.=.*.*.*.*.*.:.-.:.-X5 W W W W W Y 1 4.M : >.+XD.K.K.Q.I - m.gXN.| { | | | | | | | | | i.",
" .| | | | | | | | { ~ ! dXk 9X5.qXq.> 1 3 3 > > > > , ;.-X4 Y F.F.F.F.H.s 2.-X: h.g.g.N.D.L.j l 7XNXB f.| ~ ) | | | | | | | | i.",
" .| | | | | | | | | ) ! dXk 9Xn.qXq.6 <.1.1.1.1.3.3.z.MX3 U D.F.F.F.H.i l -XM.< ;Xh.;X+XN 4 V.NX&X1.M N.| ~ ^ | | | { | | | | i.",
" .| | | | | | | | | | [ dXb 9X@XqX#X7 4.5.5.5.n.P.P.uXf f N.].H.K.Q.i l MX%X=X< :X:X@X7 B VXdX@XkX1.M N.| ~ ( { { ] ) | | | | i.",
" .| | | | | | | | | | | dXk 7X@X<X#X7 <.4.4.5.<X<X<Xb.@ y.%XyXV.L.5 f MX5X4X=X: qXqX7 N NXy.:Xq.kX2.M u. .~ ) { ) ! ] | | |  .i.",
" .| | | | | | | | | | | sXn 5X@XqX<X9 4.<.<.5.5.5.&XN M &X%XtXyX7 k NX5.5.5.NXe =.9 B gX4.c :Xq.kXP Z t. .~ '  .~ ~ | | | | | i.",
" .| | | | | | | | | | | &X2.z.9X#X5.1 8 8 8 r 8 8 &XZ M fXtXfXM > hX8 8 7 8 y.iXZ M.AXd 7 7 q.q.0Xl -X!  . . .{ ! [ | |  .| | i.",
"i.| | | | | | | | | | | | VXt 5X@Xh CXNXNXMXMXMXMXdXV.t gXfXiX% hX&XiXfXfXfXiXfXsXdX*XfXMXm.l q.3.h AX'  . . . .' | | | | | | i.",
" .| | | | | | | | | | | | dXl.2.` l.gX| | | | | | { MXt r.N.-.B NX| | | | | | | | | | | | NXn 4.y 7Xf.| | | | .. ...| | | | | } ",
" .| | | | | | | | | | | | | uX` C iX| | | | | | | |  .hX4 l r VXf.| | | | | | | | | | | | | iX-.-.&X| | | | | | | ....| | | | } ",
"i. .| | | | | | | | | | | | | | | | | | | | | | | | | &XMXz.hX&X| | | | | | | | | | | | | | { f.| { | | | | | | | | | | | | | i.",
"d.a.a.a.a.a.a.a.a.a.p.p.a.p.p.p.p.p.p.p.p.a.p.p.p.p.p.p.a.&Xu.a.a.a.a.p.a.a.p.p.p.p.p.p.p.p.p.p.p.p.p.p.a.p.p.a.a.a.a.a.a.a.a.d."
};
