/* XPM */
static char *player[] = {
/* columns rows colors chars-per-pixel */
"64 64 251 2 ",
"   c #5D4758",
".  c #6B4C5C",
"X  c #5B4C74",
"o  c #6A4C6A",
"O  c #6C5365",
"+  c #7A5B6B",
"@  c #695A75",
"#  c #765972",
"$  c #7C636F",
"%  c #6F6777",
"&  c #796779",
"*  c #835B73",
"=  c #82646D",
"-  c #876979",
";  c #966A7A",
":  c #95747D",
">  c #755C82",
",  c #6C6589",
"<  c #796786",
"1  c #7E768B",
"2  c #7B7295",
"3  c #876B83",
"4  c #897587",
"5  c #8C7A8B",
"6  c #967A88",
"7  c #8B7793",
"8  c #937596",
"9  c #AA798E",
"0  c #977BA1",
"q  c #8C828C",
"w  c #8D8293",
"e  c #948495",
"r  c #9A8795",
"t  c #968D98",
"y  c #9C8C9C",
"u  c #AB8589",
"i  c #A78996",
"p  c #AD8B9B",
"a  c #B48A93",
"s  c #B9969C",
"d  c #998CA4",
"f  c #9994A5",
"g  c #9393B0",
"h  c #A588A7",
"j  c #A897A7",
"k  c #AC9BAB",
"l  c #B698A6",
"z  c #B193AE",
"x  c #9BB2B5",
"c  c #AAA1AC",
"v  c #B8A7AC",
"b  c #A9A5B3",
"n  c #B2A5B2",
"m  c #B9AAB4",
"M  c #A8B6BA",
"N  c #B8B7B7",
"B  c #C89C9C",
"V  c #EBA19A",
"C  c #C59AA6",
"Z  c #D89EA5",
"A  c #ED9DA0",
"S  c #C7A5A7",
"D  c #D1ACAA",
"F  c #D1B2AF",
"G  c #CAA9B8",
"H  c #D4ACB8",
"J  c #C9B6B8",
"K  c #D7B5B7",
"L  c #DAB4BC",
"P  c #ECABA8",
"I  c #ECB1B3",
"U  c #E8B9B9",
"Y  c #95CAAA",
"T  c #9CD5AA",
"R  c #9CD3AC",
"E  c #98CCB0",
"W  c #9ED4B1",
"Q  c #9EDBB0",
"!  c #A0D7AE",
"~  c #A1DAAE",
"^  c #B8C8B8",
"/  c #BCCABB",
"(  c #A3DBB3",
")  c #B9D0BE",
"_  c #ABE3AF",
"`  c #ACE5B4",
"'  c #AFEAB5",
"]  c #ABE4B9",
"[  c #AFEABA",
"{  c #B1ECB3",
"}  c #B1EBBA",
"|  c #B4E8BA",
" . c #C3C2BC",
".. c #DEC1BE",
"X. c #EAC3BB",
"o. c #F7CABB",
"O. c #FBD1B7",
"+. c #FCD5BC",
"@. c #FDD9BE",
"#. c #B39BC2",
"$. c #9CA9C2",
"%. c #B3B1CC",
"&. c #B5B5DA",
"*. c #AEB9E2",
"=. c #B5B8E2",
"-. c #CA9FCA",
";. c #C4BBC2",
":. c #C7B9C7",
">. c #D8BAC4",
",. c #C9BCD8",
"<. c #D7B1D3",
"1. c #E4BBC5",
"2. c #F3BCC5",
"3. c #E5BCD8",
"4. c #D3BAE8",
"5. c #EBBCEC",
"6. c #F6BBE3",
"7. c #E8BAF0",
"8. c #BCC8C6",
"9. c #B4D7CE",
"0. c #B5C3DA",
"q. c #B9DED6",
"w. c #BCDDDB",
"e. c #ADE7C4",
"r. c #ADE9C3",
"t. c #A7E5C9",
"y. c #A9E5CA",
"u. c #B3E6C4",
"i. c #B5E3CB",
"p. c #BCF9CB",
"a. c #A8E3D2",
"s. c #B9E2D4",
"d. c #ACC6E8",
"f. c #B9C8E8",
"g. c #BCDCE0",
"h. c #BBCCF3",
"j. c #BED3F6",
"k. c #BDE0E1",
"l. c #C4C1C5",
"z. c #CDC3CD",
"x. c #D2C3CB",
"c. c #DAC6CA",
"v. c #D5D3CB",
"b. c #CCC7D6",
"n. c #D2C6D3",
"m. c #D4CBD4",
"M. c #D9C9D7",
"N. c #D4CCDB",
"B. c #CDD7DA",
"V. c #D8D5DB",
"C. c #DCD4DD",
"Z. c #EAC7C8",
"A. c #F7CAC3",
"S. c #F5CCC5",
"D. c #F4CACB",
"F. c #FACDCD",
"G. c #E8D4CA",
"H. c #F7D4C7",
"J. c #FAD4C3",
"K. c #FCDAC4",
"L. c #F5D3CB",
"P. c #F9D4CB",
"I. c #FBDBCB",
"U. c #ECCDD4",
"Y. c #EAC9D9",
"T. c #F9CDD3",
"R. c #F9C3DC",
"E. c #F6CADA",
"W. c #ECD4DC",
"Q. c #E7D8D8",
"!. c #F7D7D7",
"~. c #FAD3D3",
"^. c #FADDD3",
"/. c #F5D3DB",
"(. c #D2EDDA",
"). c #C8F9D7",
"_. c #CCFCDA",
"`. c #EEE6CB",
"'. c #F2E7CA",
"]. c #FCE2CD",
"[. c #FBECCE",
"{. c #FCF4C7",
"}. c #FCF3CC",
"|. c #EAE2D5",
" X c #EDE4DD",
".X c #FCE4D3",
"XX c #FCECD3",
"oX c #F7E6D9",
"OX c #F5ECDC",
"+X c #FBEADD",
"@X c #FBF4D3",
"#X c #FCF9D3",
"$X c #F7F3DD",
"%X c #FCF9DC",
"&X c #C9CAE7",
"*X c #D5C9E8",
"=X c #C7D7E6",
"-X c #C5DDEB",
";X c #CBDDED",
":X c #D9D8E7",
">X c #C8CDF3",
",X c #DACCF3",
"<X c #CDD2F4",
"1X c #EBC3E3",
"2X c #EBCEE3",
"3X c #E7C9E9",
"4X c #F5C7E5",
"5X c #F9C3E4",
"6X c #F9CAE3",
"7X c #F9C4E8",
"8X c #F5CAEA",
"9X c #E3D3E5",
"0X c #E2DCE5",
"qX c #E9D8E8",
"wX c #F4D8E5",
"eX c #E7C8F3",
"rX c #EACBF2",
"tX c #F3C2F1",
"yX c #E7D8F1",
"uX c #F2DEF2",
"iX c #CBE4EC",
"pX c #D7E6E8",
"aX c #CDF5E2",
"sX c #D7F6E3",
"dX c #CDE2F1",
"fX c #D4E4F1",
"gX c #DAE4F1",
"hX c #DAE9F3",
"jX c #EBE5E7",
"kX c #E4E3ED",
"lX c #F6E7E5",
"zX c #FAECE3",
"xX c #F2ECEC",
"cX c #E3F3EE",
"vX c #F6F3E5",
"bX c #FBF5E3",
"nX c #FCFAE4",
"mX c #F5F2EC",
"MX c #FAF4EC",
"NX c #FCFAEC",
"BX c #E3E5F2",
"VX c #E3EBF5",
"CX c #E9E8F4",
"ZX c #EBECF4",
"AX c #F2EDF2",
"SX c #F7E9F6",
"DX c #ECF1F8",
"FX c #F5F1F3",
"GX c #F9F6F3",
"HX c #F9F4F9",
"JX c #FDFDFA",
/* pixels */
"} } } } } } } } } } } { } } } } { } } } } } } } } { } } } } } } } [ s.;XfXfXhXhXpXfXfX-Xu.} } [ } } } } } } } } } ' ' } } ' [ y.",
"} { { { { { { { { { { { { { { { { { { { { { { { { { { { { { { { i.VXkX:.^ ^ ^ ^  .^ l.m.kXVXs.{ { { { { { { { { { { { { { { { r.",
"} { { { { { { { { { { { { { { { { { { { { { { { { { { { { { { VXAXN r m N N  .J J  . .n & l.kXDXi.{ { { { { { { { { { { { { { r.",
"} { { { { { { { { { { { { { { { { { { { { { { { { { { { { hXFX^ 4 ^ mXNXnXnXnXnXNXNXGXGXjXz.4 n jXfX{ { { { { { { { { { { { { r.",
"{ { { { { { { { { { { { { { { { { { { { { { { { { { { i.DXz.r n Q.NXNXnXnXnXbX$X$XOXNXNXGXGXQ.J 4 m.VX{ { { { { { { { { { { { r.",
"{ { { { { { { { { { ` ( { { { { { { { { { { { { { { iXZXn c AXGXnX%X%XnXnX%XXX`.`.G.nXNXNXNXNXNXjXr :.gX{ { { { { { { { { { { e.",
"{ { { { { { { { { { ( W { { { { { { { { { { { { { q.ZXy :.HXJXGXNXnX%XnXnX%X%X%X%X%XnXvXxXmXxXjXjXxX5 z.fX{ { { { { { { { { { r.",
"{ { { { { { _ ` { { ( R { { ` ` { { { { { { { { { ZX .n HXJXJXJXGXNXvXvXmXlX XOXbX%XnX XQ.AXJXJXHXmXjXr :X{ { { { { { { { { { r.",
"{ { { { { { ~ R ` { ( R { ` Y ! { { { { { { { { dXjX5 AXJXJXJXGXGXjX|.GXJXJXJXHXQ.c.G.D C l FXJXGXGXGX:.m fX{ { { { { { { { { r.",
"' { { { { { { W R ` W R { R Y ` { { { { { { { { DXn x.GXJXJXJXGXZXQ.GXJXJXJXGXc.U Z.U A.I H >.HXGXNXbXjX# kX{ { { { { { { { { r.",
"' { { { { { { ( W ( ( ~ ` Y ! { { { { { { } } i.AX5 xXGXGXJXJXGXQ.GXGXJXJXJXQ.L ^.^.I.K.o.I s xXNXMX$XMXy z.;X{ { { { { { { { r.",
"} { { { { { { ` R ( { ' ` Y ~ { { { { { { { { fXz.^ GXNXGXGXGXmXjXJXJXJXJXJXm ~.I.K.K.K.+.o.Z x.MXMXMXbXx.c DX{ { { { { { { { r.",
"[ { { { { { { { ` ' { { { ' { { { { { { { { { VXi m.NXNXNXNXNX XMXJXJXJXJXxXl ~.K.K.J.+.+.+.U p MXmXGXGXjXy C.gX{ { { { { { { r.",
"[ { { { { { { { { { { { { { { { { { { { { { { ZX5 xXbXnXnXnXNX XGXGXGXJXGXn.L D.J.+.+.+.+.O.A.s qXHXGXGXJXFXq ZX{ { { { { { { r.",
"} { { { { { { { { { { { { { { { { { { { { { } :Xi MX%X%XnXnXOXOXNXNXGXGXGXk a 9 U +.+.+.+.o.B C m MXGXGXJXJX^ 0Xg.{ { { ' { { r.",
"} { { { { { { { { { } q.g.w.i.{ { { { { { { BXi J bX%X%X%X$X|.nXnXNXNXNXQ.D D.A.A.+.+.@.J.J.o.A.S c.GXGXJXJXl.C.;X{ { { { { { r.",
"} { { { { { { { ;XZXjXM.n.n.0XZXDXfXw.q.w.gX:.= G.XX@X@XXX|.bXnXnXnXNXNXJ /.!.L.I.J.@.@.@.J.J.D.U.z Q.GXJXJXl.C.;X{ { { { { { r.",
"} { { { { { { VXC.y k :.x.m k r j m.C.0Xm.k - v.@X'.'.'.XXnXnXnXnXnXMXQ.k - O O ..K.@.@.K.P.S . O G 4 lXGXJXn kX-X{ { { { { { r.",
"} { { { { { VXz.e Q.MXMXGXGXGXFXM.c y y j x.xXNX%X#X#X#X%XOXbXbXbXG.H 6   g x 2 k I.K.K.K.G.< $.b O + c.MXHX5 ZXw.{ { { { { { r.",
"} { { { { -Xm.r xXGXGXJXJXJXJXJXJXJXJXGXGXGXGXGXNXnX%XoXs u S F K U G   m.=Xd.f.W.].].].]. X0.0.:X5 + L MXQ.3 xXkX;X{ { { { { r.",
"} { { { { BX7 Q.HXm.^ ^ ZXJXJXJXJXJXJXJXJXJXJXGXGXNXbXm K o.X.D A.P.L N jX&Xd.d.qX.X].]..X X0.;X:XJ * >.zXv z l v :.BX{ { { { r.",
"} { { { { :X8 qXk :.n.k 4 :XZXJXJXJXJXJXJXxXxXFXxXNXMXv Z.o.o.K.K.I.P.~.Y.9X0.&. X.X].]..XlX0.&XQ.U.; U.F p p 9 - + b VX{ { { r.",
"{ { { { } :X8 4 N.n 5 l.AXJXJXFXFXJXJXGXM.6 6 6 6  XzXm F o.V o.J.J.P.A.D.U.C.C.oX.X.XXXXXzXC.Q.!.U.p H z p C D K Z.- :X{ { { r.",
"{ { { { } C.@ ,.r z.HXJXJXJXJXJXJXJXJXxX+ L D.s >.- F U.: X.o.o.J.J.J.A.A.F.L.^..X.XXX+XoX+X+XoXoXW.p p i B H.A.A.A.; m.{ { { r.",
"} { { { { } 9Xr z.GXGXGXGXGXJXGXJXJXJXjX6 1.P.L.P.Z.u l H - C F F L.I.I.P.J.J.I.].o.P I Z G.+X+XlXc.* u X.J.J.J.A.S + :X{ { { r.",
"} { { { { =X:.^ GXGXGXGXGXGXGXGXJXGXGXFX6 L I.^.I.H.L.S - p H >.i s G.!.^.I.I.].].o.A A A .X+XzXQ.5 s D.J.J.J.X.: r kXfX{ { ' [ ",
"} { { { { ZX4 AXGXGXJXJXGXJXJXJXJXGXGXHXx.* a ..L.I.L.L.D.G - G <.z 3 v G..X].].].I.P P L.^.oXJ $ G D.P.J.P.D - ^ ZX;X{ { { { r.",
"} { { { i.C.j GXGXJXJXJXJXJXHXHXHXHXHXHXAXqXv + 6 L D.P.F.T.Y.i :.%.k # & r v L U.!.L.L.U.J 5 4 - 1.2.F.Z.a 5 0XVXu.{ { { { { r.",
"} { { { dX8.:.GXNXJXJXJXHXqXY.Y.1X1X1X1X1X1X2XY.v . p U.~.~.~.1.qXuXAXqXj >.r 6 = = = O q ^ v.(.N C I U = n ZXfX{ { } { { { { r.",
"} { { { fXj m.NXNXJXJXHXqX2X^..X^.^././.E.E././.E.Y.z = L ~.D.L M.uXuXAX:.M.H H 1.D s a r C.sXsX(.i C + m.ZXg.` { [ R [ { { { r.",
"} { { { gX4 M.NXNXGXJXqX2X+X[.[.[.[.[..X^.~.R.R.R.6X4X3.- p H 3 ,.yXrXyX0XJ U.G 1.U U G >.y pXsXsX& & m.fX] Y ' ` E W ` { { { e.",
"} { ~ ~ gX5 c.bXnXGXAX1XlXXX[.}.[.[.[..X~.R.R.6X6X6X6X6X4Xh o z &X:XrXrX:X:.Y.T.Z.Z.>.>.Z.j q.aXpX% m.VX( ] Y ` ! E R } { { { r.",
"} { ` Y iXn m %X%XMX3.8XzXXX[.}.}.}.XXoXR.6X6X6X6X6X6X7X4X4X3 #.&X<X<X<X%.m U.T.D.D.D.D.U.:.M s.x @ kX-XW ] R [ ( E { { { { { r.",
"} { { Y 9.C.5 +X%XqX8 2XzXXX[.}.}.}.XX~.R.6X6X6X6X6X7X7X6X5X3.< d b.=X0.g b.U.T.F.F.F.T.W.n.% t %.c DXY Y ` ' ` ! W ' { { { { e.",
"} { { ` Y gX4 Q.OX:.o n zXXX}.}.}.}.XX~.R.6X6X6X7X7X6X7X5X5X5X<.z < X g 0.b.Y.T.~.~.~.~.wX^ 1 9.c VX-X` ` { { { ` ` { { { { { r.",
"} { { ' R i.N.5 qX4 > 3 lX@X}.}.@X@XXX~.R.6X6X6X7X6X6X6.6.6.6.6.3.3X< &.f.b.W.~.~.~.~.^.qXc w n kXu.{ { { { { { { { { { { { { r.",
"} { { { { { ;Xk N # 9Xo Q.%X}.#X}.}.}..XT.R.6X6X7X7X7X6.6.6.6.6.6.1X7 &.=.f.N.M.Y.W.W.Q.0Xy :XHXu.{ } { { } { { { { { { { { { e.",
"} { { { { { { gXz.f AX3 J MX@X#X}.}.}.XX^.T.6X6X6X6X6.6.6.6.6.6.3.h X $.=.&X&X*X*XN.N.N.z.w 0XHX} { { } { { { { { { { { { { { e.",
"} { { { { { { { hXDXZXz.- xXnX#X@X}.}.}.XX.XT.R.6X6X6.6.6X6XE.3.8 g =.=.&.&.,.,.z.n.n.z.) & ^ AX;X} { { { { { } { { { { { { } r.",
"} { { { { { { { { { { BXn ^ HXbX@X}.}.}.}.}.XX~.E.E.6X6X4X4X9X0 &.h.>X>X<X&X*X9X9X0XpXpXpXpXt y ZXs.{ { { { } { } } { { { { { r.",
"} { { { { { { { { { { s.AXk ^ MXbX@X}.{.{.}.`.G.lXwXwXwX>.N g f.h.>X*X<X:X:XqX8XqXkXsXsX_._.pXq j BX-X{ { { { } } { { { { { { r.",
"} { { { { { { { { { { { iXZX^ r x.Q.|.G.G.J - O k m.:.d M &.<Xj.h.,X*X<X:X9XwX7X8XZXpX_.p.p.).(.f r kXs.{ { { { } { { { { { { r.",
"} { { { { { { { { { { { { { VX0Xz.n 5 5 j :.0Xm.o f &.>Xj.j.j.j.>XyX*X;X9XW./.8X8XZXpX_.).p.p.).pXy w kX{ { { { { { { { { { { r.",
"} { { { { { { { { { { { { { { { s.fXVXVXhXiXfXC.4 ,X>Xj.h.h.>X,X,X*X*X0XqX/./.8X8XyXgXaX).).).)._.pXw b gX{ { { } { { { { { { r.",
"} { { { { { { { { { { { { { { { { { { { { { { 0X7 >Xh.>X,XeXeXeX3X*X:X9X/.~./.8XeXrXZXpX_._._._._.sXC.% :Xw.{ { { { { { { { { r.",
"} { { { { { { { { { { { { { { { { { { { { { { VX7 ,.,XeXtXtXtX5.*X*X9X/.~.~./.8X8XeXyXgXsXsXsXsXsXsXcXb ^ gX{ { { { { { { { { r.",
"} { { { { { { { { { { { { ' ' ' { { { { { { { fX^ h rXtXtX5.5.7.*X9X2X~.~.~.E.8X8X8X8X0XgXpXB.N M 8.B.m.7 ZX{ { { { { { { { { r.",
"} { { { { { { { { { { { { ~ R { { { { { { { { { VXd #.tX5.5.7.4.9X2XT.~.T.~.E.8X8X8X8X9X:.r l L m 1 g 8.& kX{ { { { { { { { { r.",
"} { { { { { { { { { { { { Q R { { { ' ' { { { { -X0X5 -.5.7.4.*X8XE.T.F.T.T.E.7X8X8X1X9 9 P U A.!.:., 2 @ :X{ { { { { { { { { r.",
"} { { { { { { { { ` ' { ' ( R { { { ~ R { { { { { -XZXj 0 -.5.3XY.T.T.F.T.T.R.5X1X<.3 ; P I o.J.I.c.@ > d VX{ { { { { { { { { r.",
"} { { { { { { { ` Y ( } { ( R { } W R ` { { { { { { { fXN.j 4 z 1.D.A.A.D.T.Y.G h > # K A.J.K.K.^.G 4 C.ZX} { { { { { { { { { r.",
"} { { { { { { { } R Y ( } ! R { ( Y ( { { { { { { { { { { kX:.  ; u u a u ; o :.#.2 N.!.I.I.I.^.Z.& 0XhX} { { { { { { { { { { r.",
"} { { { { { { { { } R ! } ~ R } ( Y ' { { { { { { { { { } :X6 U U U U U L 3 ,.b , *.=XQ.I.I.~.F - m.hX{ { ' { { { { { { { { { r.",
"} { { { { { { { { ' R Y ` ' { { R Y { { { { { { { { { q.:X5 F P.J.J.J.L.p :.:X, f.d.d.B.G.U.j k 0XVX{ { { R ~ { { { { { { { { r.",
"} { { { { { { { { { ! Y } { { { R R } { { { { { { { u.BX4 ^ G.H.H.P.L.i j :XN.2 >Xf.f.&Xn 5 C.VX-X{ { { { R Q { { { ' { { { { r.",
"} { { { { { { { { { { ` { { { { ' ' { { { { { { { { fXf f B.|.I.I.!.i k BX=X:X2 ,X,X*X7 m ZXfX{ { R ~ { { R W ' ' _ ~ { { { { r.",
"} { { { { { { { { { { { { { { { { { { { { { { { { { b.@ 0.s.pXC.U.6 f BX} { :X@ eX3X7 b VXs.{ { { ( Y ( } R ! { ~ Y _ { { { } r.",
"} { { { { { { { { { { { { { { } { { { { { { { { { -Xb b -Xs.iXpX7 j VX{ { { VXw #.0 N hX{ { { { { } R Y } R ( } R R { { { { { r.",
"} { { { { { { { { { { { { { { { { { { { { { { { { -XN b pXiXpXb 1 kX{ { { { k.gXN C.DX} { { { { { { ] Y } } } ' Y ` { { } { { r.",
"u.{ { { { { { { { { { { { { { { { { { { { { { { { u.C.t hXpXgX& kX-X{ { { { { { dXfXi.{ { { { { { { } ( } } } } ( { { { { { { u.",
"} { { { { { { { { { { { { { { { { { { { { { { { { ' BXy 8.B.%.n VX{ { { { { { { { { { { { { { { { { { { { { { } } } { { { { { ] ",
"} { { { { { { { { { { { { { { { { { { { { { { { { { { kX5 k r ZXi.{ { { { { { { { { { { { { { { { { { { { { { { { { { { { { { ] ",
"u.} { { { { { { { { { { { { { { { { { { { { { { { { { -XBXz.kX-X{ { { { { { { { { { { { { { ' { { { { { { { { { { { { { { { { r.",
"a.y.y.y.t.y.y.y.y.y.t.t.y.t.t.t.t.t.t.t.t.y.t.t.t.t.t.y.y.-Xw.y.t.t.t.t.y.y.t.t.t.t.t.t.t.t.t.t.t.t.t.t.y.t.t.y.y.y.y.y.y.y.y.a."
};
