/* XPM */
static char *player[] = {
/* columns rows colors chars-per-pixel */
"64 64 60 1 ",
"  c #47251C",
". c #572A1D",
"X c #452923",
"o c #663326",
"O c #7D3A26",
"+ c #793A2C",
"@ c #5B423D",
"# c #6A5752",
"$ c #766661",
"% c #904622",
"& c #9C4424",
"* c #914B39",
"= c #B04C21",
"- c #CA5D22",
"; c #E87224",
": c #E0702D",
"> c #AA6756",
", c #9D6F64",
"< c #897A77",
"1 c #D77144",
"2 c #4F8224",
"3 c #528525",
"4 c #558B26",
"5 c #588D26",
"6 c #588E29",
"7 c #5A9127",
"8 c #579028",
"9 c #5F992B",
"0 c #60962D",
"q c #629C2C",
"w c #659D31",
"e c #66A22D",
"r c #69A42F",
"t c #66A231",
"y c #6BA533",
"u c #6EA934",
"i c #6EA738",
"p c #72AD36",
"a c #73AE39",
"s c #76B137",
"d c #78B437",
"f c #76B039",
"g c #7DB539",
"h c #7EB83B",
"j c #7EB940",
"k c #80B73F",
"l c #80BA3D",
"z c #80B940",
"x c #CA8672",
"c c #EB9265",
"v c #B59688",
"b c #A39794",
"n c #ECA688",
"m c #E3A894",
"M c #C2B3AE",
"N c #D1B2A5",
"B c #ECCEC0",
"V c #EBD7CE",
"C c #F1EAE6",
"Z c white",
/* pixels */
"pggggggggggugggpfggafygafggggggggffugpfgggggggggfffggfuguhhhgggg",
"ggggggfpgaafsggaggggfaguagggggggfffuggghgggggggggiufgfuuahgggggg",
"gggggggppp$   @gggggggguufgggyfguafugh#   Xfugggfuyufhgufhfagggg",
"ggggghgsu@oooo.Xbgggggguuggggyfgupu$$#o+++o@$ifautuufhhufjffffgg",
"ggggghhg<o+++++o@<gggggagggggyffufb...+++++ @yauyiiufhhgggghupgg",
"hggggggg *>v,OOOo@<ggggggggggguyf@.+++++++++o#yyyffafhgggggguugg",
"lhhgpfgg *xVN,OO+o <ggggggghgggy<.OO++NNN,O+o@auugghjgggggggggfy",
"glhgpggg *xVVN>O++o #ggggyghggg$.oOO*>BVV,OOo@ggggggggggggggggpy",
"phgpgggg *xVVBNO+++.@##########@+OOO,BVVV,++o@ghhghgggggggggggpu",
"ahhhhggg *xVBBBm*++O%%%%%%%%%%%o+O*>NVVVV,O+o@hhhgghghggggjgggpf",
"fgghhhgg *xBBBBm*&--;;;;;;;;;;:%%&&mBVVVV,++o@lljjjjjhggggaggggg",
"gggghhaa *xBBmx1=;;;;;;;;;;;;;;;;;-xmBVVV,++o@hlgggggjhgggaagfgg",
"gggghgaa *xBN>=:;;;;;;;;;;;;;;;;;;--=mBVV,++o@hhgghgffgjggfafafg",
"gggggggu *>B>&=;;;;;;;;;;;;;;;;;;;---mBVV,++o@ghhzzggaaggjggfagg",
"gggggggy **&=:;;;;;;;;;;;;;;;;;;;;;;-1xVV,O+o@jjhllhgaifajggggga",
"agggggay **&;;;;;;;;;;;;;;;;;;;;;;;;:-xVV,OOo@jjgjhggfifagjjgghf",
"ufagggayXo*&;;;;;;;;;;;;;;;;;;;;;;;;;;1xx*O+o@ggjhhggggiigghahhh",
"giuaggfgg#%;;;;;;;;;;;;;;;;;;;;;;;;;;;--=%O+o<hggggggggaiiaggjhh",
"huufagghg#%;;;;;;;;;;;;;;;;;;;;;;;;;;;;;=&O #gggagggggggffgghjhj",
"gaafugghg#&;;nBc;;;;;;;;;;mBc;;;;;;;;;;;=&.$<gggagggggggggggahzh",
"hggggggg#=:;;mCn;;;;;;;;;;BCn;;;;;;;;;;;=& Mggfygffggggggghhfhhh",
"gghggggg :;;;;:;;;;;;;;;;;:::;;;;;;;;;;;=& Mggaygaagggggggffhhgg",
"gggggghh :;:---:;;;;;;;;;;;----;;;;;;;;;=& Mufpygafgggggggaajjgg",
"hggggghh :;:O@X&;;;;;;;;;;:%  o-;;;;;;;;=& Mpuuyfugauaggggaahagg",
"ghghhhgg :;=<ZCX-;;;;;;;;;.bCC O-;;;;;;;=& Mppppfggspupggaaahpgp",
"hhggggg<.:;=<ZCX-;;;;;;;;;.bZCX %;;;;;;;=& Mpgggggggfsuafyagsghu",
"hhhhhh#%:;;=#MMX-;;;;;;;;;.bMM  %;;;;;;;=& Mghhggggggstyuufhgghf",
"hhhhh#&-;;;=   X-;;;;;;;;;.     O;;;;;;;-=o<bggggggggdtyyifhgggg",
"hhhh#%-;;;;-%  .:;;;;;;;;;o     O;;;;;;;;:=O<0hgggdsggaiiagggggg",
"hhhbo:;;cm:;-&=:;;;;;;;;;;;%   O-;;;;;;;;;:%+<uhsp4349hfafgggggg",
"ghhbo:cnVZmc:::%%O%cn1;;;;;-===-;;ccccc1;;;:=#0s557ee@@@@@@X<ggg",
"ypfs#%BCZZZB111XXX$ZZCB;;;;;;;cccnZZZZZVn;;;=#9eqeeee$$$$$#@$ggg",
"yuushXBCZZZZZZCXXX<ZZZCnnnnnnnCZZZZZZZZZC::;=#qq$@@@MZZZZZCNXggg",
"yfgghh#MVCZZZZZC$bCZZMCZZZZZZZZZZZZZZZZZZCn:=#qqvvbNVZZZZZCMXggg",
"aggggg<$<NVZZZZZ<CCCCXMZZZZZZZZZZZZZCVVVVBx-%XX#NBZZZZZZZCb$gghh",
"fggggggb<vNCCZZZbXXXX<CZZZZZZZZZZZZZCVBBBNo. #MVZZZZZZZZZB$@qhhh",
"gggggghhg#@NNCCCVMMMMMCZZZZZZZZZCBBBBN<<<<# ovCZZZZZZZZCBv<usfhg",
"ghgggguhhhg#XBBBBVVBBBBBBVVVVVVVBNNNNb$$$b<%-mZZZZZZZZZCMXydusgg",
"ggffgfygggggg<$$$bbvvvvvvvvvvvvvvXXXXb9qqMo-;nZZZZZZZZZCMXuhqdgg",
"ggaagfygghggg<$$$$#X  X        X#f92699qq@-;;::cZZZZZZZCMXquydgg",
"agffseugggggggghggg#vNNNNBNv===%$y984946.-;;;;;cZZZZZZZCvXuygggg",
"ygggseupggggggghhg<@NBBBBVVm---=,ffyq24<%:;;;;;:ccBZZZZCvXryddgg",
"yfgsyryugggggffggg.NCZZZCCCB;;;:&.ggh6bO;;;;;;;;;cCZZZZCvXepsyug",
"yfggseufgggggffaggoMZZZZZZZV;;;;:%@bg9bO;;;;;;;;;cZCcnZCvXydsypr",
"ugggfyusgfffagfyho-VZZZZZZZV;;;;;=Obf#O-;;;;;;;;;cBB;nZCMXpdeysr",
"sggggfffffffufayg.-VZZZZZZZV;;;;;-%bf@&;;;;;;;;;;;;;;cZCvXpsyssu",
"fgggggggfffffyfigo:VZZZZZZZV;;;;;-%bg@&;;;;;;;;;;;;;;:nx,Xgpppup",
"ggggggggpfpfgugfuo:BZZZZZZCB;;;;;-%<g@&;;;;;;;;;;;;;;;-=OXgggppg",
"ggggggggffufhugfyo:cCZZZZZm;;;;:-:=@#O-;;;;;;;;;;;;;;-==OXgjzzhk",
"ggggggggggfggufauo::nVZZZBc;;;;:=;-=X%;;;;;;;;;;;;;-====OXghzzgg",
"ggsfgggggghhhffago;;;BCCCc;;;;;:=;-=X%;;;;;;;;;;;;-====O@gghzzag",
"ggppgufggggghgggg.&-;1111-::;;:-=;-= %;;;;;;;;;;--=====o#gggpghh",
"gggghpggggggggghg .&--======::-==;-= %;-=--=----======oX#gggupfh",
"ggggpuggggggfggggp@O&&OO+OOo&======= O--============&O#ggggfgguh",
"gyggsusfggguugfpyag +++ @##XO&====== o%============&%$ggggpugsug",
"gugggpuuggguuffeypgXo+o <su@.o%===&O<b#&===&&&&&=& @Xgggggpygyph",
"hgggggpuggguuuutyp#o+oo <gp@ o%&=&OXggg           gupgggggpugyhf",
"hgggggfpsgugftfsup o+. psufXo+++++Xgggaagghgggggggayupyggfaggyha",
"gggggggfuhugfygfff     ffusX.ooo $ggggffggpggggggufauyaggfgggpgg",
"ggggggggpufggsgggggggfpufggXXXXX@gggggggpfuffgggguffuuagggggghgh",
"ggggggggsufggsggggggagfpgggggfqyfggggggfugfffpffgppfayaggggggghh",
"gggggggggfugguhhhggfyfggspggggtyfggggggfughfypfuaguaggggggggggjh",
"gggggffgggghhgghhgffyuggspggggggggggpaggaugsugfuaguagggggggaaggh",
"ghggaupgggghhghhgguifyfpuhgggggggggpufhhgfgfpgfuagfggghhhggywggg"
};
