/* XPM */
static char *wall[] = {
/* columns rows colors chars-per-pixel */
"64 64 206 2 ",
"   c #796D77",
".  c #705D85",
"X  c #6E638B",
"o  c #79668A",
"O  c #746B92",
"+  c #876C8A",
"@  c #88788A",
"#  c #856994",
"$  c #8A7496",
"%  c #8E7C94",
"&  c #957295",
"*  c #917C93",
"=  c #977CA8",
"-  c #7D8A92",
";  c #7E80A4",
":  c #878A8C",
">  c #8F918F",
",  c #838C95",
"<  c #8F8098",
"1  c #858A9A",
"2  c #948495",
"3  c #99859B",
"4  c #8D9592",
"5  c #8E9A93",
"6  c #869198",
"7  c #919693",
"8  c #929A95",
"9  c #9BA199",
"0  c #8685A6",
"q  c #9887A4",
"w  c #9197B7",
"e  c #A58FA8",
"r  c #A293AB",
"t  c #A796A9",
"y  c #A98CBC",
"u  c #A899B2",
"i  c #92BEB4",
"p  c #95BDBB",
"a  c #AEA0AE",
"s  c #A3B7A2",
"d  c #ADA3B2",
"f  c #AEADBF",
"g  c #B4A8B8",
"h  c #AFBEBC",
"j  c #B5B9B9",
"k  c #8DC7A6",
"l  c #8CC5AB",
"z  c #8DC8AC",
"x  c #90C6A7",
"c  c #93CAA7",
"v  c #92C5AE",
"b  c #94CAAB",
"n  c #99CDAC",
"m  c #9CD3AD",
"M  c #9FD8AF",
"N  c #8FC0B0",
"B  c #93C5B2",
"V  c #94C9B1",
"C  c #9ACBB2",
"Z  c #95C0BC",
"A  c #9BC3BC",
"S  c #9DD4B1",
"D  c #A1D7AE",
"F  c #A2DAAE",
"G  c #A1CDB5",
"H  c #A2C4BD",
"J  c #B5C6BA",
"K  c #A5D4B5",
"L  c #A4DCB2",
"P  c #A8DCB3",
"I  c #B8D8B9",
"U  c #ADE6AE",
"Y  c #AEE9AE",
"T  c #B1E7AF",
"R  c #B2E9AF",
"E  c #A7E0B3",
"W  c #ACE4B4",
"Q  c #AFEAB4",
"!  c #ACE5BB",
"~  c #AFEAB9",
"^  c #B4E6B4",
"/  c #B9E7B5",
"(  c #B2ECB3",
")  c #B4E5BA",
"_  c #BBE6BD",
"`  c #B0EBBA",
"'  c #BAEABB",
"]  c #C1E8BD",
"[  c #B69CC6",
"{  c #92A0C2",
"}  c #94ACCA",
"|  c #8FB5C6",
" . c #8EB1CC",
".. c #96B8C7",
"X. c #92B5CE",
"o. c #94B9CB",
"O. c #8FB3D1",
"+. c #92B4D2",
"@. c #9AB7D3",
"#. c #A7AAC9",
"$. c #B6ACC1",
"%. c #A6B6CB",
"&. c #ABBDCC",
"*. c #B7BEC8",
"=. c #BAACD6",
"-. c #BEAEDA",
";. c #A6BBD6",
":. c #B8B6D7",
">. c #BCB4D5",
",. c #BABBD4",
"<. c #BFBCE2",
"1. c #CAAEC8",
"2. c #C4B7C6",
"3. c #CABCCA",
"4. c #C2A8DA",
"5. c #C3ABDE",
"6. c #CBADDC",
"7. c #C4BBD7",
"8. c #C5B2DE",
"9. c #CBB2DC",
"0. c #CDBBDC",
"q. c #D6B8DB",
"w. c #D4BBDD",
"e. c #E2BDDE",
"r. c #C2AAE0",
"t. c #CBB7E1",
"y. c #CBB5E2",
"u. c #D7BDE2",
"i. c #E2BFE2",
"p. c #9CC2C1",
"a. c #A6C5C8",
"s. c #B6C7C4",
"d. c #BDC4C6",
"f. c #BAC9C3",
"g. c #BFC3C8",
"h. c #BBD5C6",
"j. c #ABC7D6",
"k. c #B7C7D8",
"l. c #BBDBDB",
"z. c #ADE7C3",
"x. c #ADE9C2",
"c. c #A7E5C9",
"v. c #A8E5CA",
"b. c #ABE8CA",
"n. c #B4E4C6",
"m. c #A8E3D2",
"M. c #B3E1D2",
"N. c #B4C6E2",
"B. c #BAC4E5",
"V. c #BBCAE4",
"C. c #BFDDE5",
"Z. c #C2C1CB",
"A. c #CBC3CE",
"S. c #C5DAC9",
"D. c #C8C3D5",
"F. c #D2C8D4",
"G. c #D4CDDA",
"H. c #DACCDC",
"J. c #CAD4D5",
"K. c #D6D0DE",
"L. c #DCD3DD",
"P. c #E0C8DF",
"I. c #E4DADE",
"U. c #C6E8C4",
"Y. c #D8EED6",
"T. c #C2C6E5",
"R. c #DAC8E3",
"E. c #C8D7E7",
"W. c #CCD4E7",
"Q. c #C5DBEA",
"!. c #D7D8E6",
"~. c #DCDDEA",
"^. c #E4C3E1",
"/. c #E6CAE2",
"(. c #E3DCE3",
"). c #E5D5E8",
"_. c #E3DEEA",
"`. c #EBDBEB",
"'. c #F1DEEC",
"]. c #C9E0EE",
"[. c #D2E2EE",
"{. c #DAE5EE",
"}. c #CFE2F0",
"|. c #D2E2F1",
" X c #DAE6F2",
".X c #D6E8F3",
"XX c #DCE9F3",
"oX c #E7E6E5",
"OX c #E4E3EC",
"+X c #ECE3EE",
"@X c #F3E7EE",
"#X c #F7ECEC",
"$X c #ECF5E8",
"%X c #F6F4EE",
"&X c #E4E6F2",
"*X c #E4EBF4",
"=X c #EBECF4",
"-X c #E8EEF8",
";X c #F2E5F1",
":X c #F4EBF2",
">X c #FAEFF4",
",X c #F7F4F2",
"<X c #FAF5F3",
"1X c #FCF9F6",
"2X c #F8F4FB",
"3X c #FDFBF9",
/* pixels */
"` ` ` ` ` ` ` ` ` ` ` ( ` ` ` ` ( ` ` ` ` ` ` ` ` ( ` ` ` ` ` ` ` ~ ` ` ` ` ` ` ` ` ` ` ` ` ` ` ` ` ` ` ` ` ` ` ` Q Q ` ` Q ~ b.",
"` ( ( ( ( ( ( ( ( ( ( ( ( ( ( ( ( ( ( ( ( ( ( ( ( ( ( ( ( ( ( ( ( ( ( ( ( ( ( ( ( ( ( ( ( ( ( ( ( ( ( ( ( ( ( ( ( ( ( ( ( ( ( x.",
"` ( ( ( ( ( ( ( ( ( ( ( ( ( ( ( ( ( ( ( ( ( ( ( ( ( ( ( ( ( ( ( ( ( ( ( ( ( ( ( ( ( ( ( ( ( ( ( ( ( ( ( ( ( ( ( ( ( ( ( ( ( ( x.",
"` ( ( ( ( ( ( ( ( ( ( ( ( ( ( ( ( ( ( ( ( ( ( ( ( ( ( ( ( ( ( ( ( ( ( ( ( ( ( ( ( ( ( ( ( ( ( ( ( ( ( ( ( ( ( ( ( ( ( ( ( ( ( x.",
"( ( ( ( ( ( ( ( ( ( ( ( ( ( ( ( ( ( ( ( ( ( ( ( ( ( ( ( ( ( ( ( ( ( ( ( ( ( ( ( ( ( ( ( ( ( ( ( ( ( ( ( ( ( ( ( ( ( ( ( ( ( ( x.",
"( ( ( ( ( ( ( ( ( ( W L ( ( ( ( ( ( ( ( ( ( ( ( ( ( ( ( ( ( ( ( ( ( ( ( ( ( ( ( ( ( ( ( ( ( ( ( ( ( ( ( ( ( ( ( ( ( ( ( ( ( ( z.",
"( ( ( ( ( ( ( ( ( ( L S ( ( ( ( ( ( ( ( ( ( ( ( ( ( ( ( ( ( ( ( ( ( ( ( ( ( ( ( ( ( ( ( ( ( ( ( ( ( ( ( ( ( ( ( ( ( ( ( ( ( ( x.",
"( ( ( ( ( ( U W ( ( L m ( ( W W ( ( ( ( ( ( ( ( ( ( ( ( ( ( R ( ( ( ( ( ( ( ( ( ( ( ( ( ( ( ( ( ( ( ( ( ( ( ( ( ( ( ( ( ( ( ( x.",
"( ( ( ( ( ( F m W ( L m ( W b D ( ( ( ( ( ( ( ( ( ( ( ( ( ( ( ( ( ( ( ( ( ( ( ( ( ( ( ( ( R ( Q L ( ( ( ( ( ( ( ( ( ( ( ( ( ( x.",
"Q ( ( ( ( ( ( S m W S n ( m b W ( ( ( ( ( ( ( ( ( ( ( ( ( ( ( ( ( ( ( ( ( ( ( ( ( ( ( ( ( ( ( W c W ( ( ( ( ( ( ( ( ( ( ( ( ( x.",
"Q ( ( ( ( ( ( L S L P F W b D ( ( ( ( ( ( ` ` ` ( ( ( ( ( ( XX*XM.( ( ( ( ( ( ( ( ( W W ( ( ( W b W ( Y ( ( ( ( ( ( ( ( ( ( ( x.",
"` ( ( ( ( ( ( W n L ( Q W b F ( ( ( ( ( ` ` ( ( ( ( ( ( ( OXu j =X( ( ( ( ( ( ( ( ( L b W Q Q W b W ( ( W W ( ( ( ( ( ( ( ( ( x.",
"~ ( ( ( ( ( ( ( W Q ( ( ( Q ( ( ( ( ( ( ( ( ( ( ( ( ( ( [.2.J J J  X( ( ( ( ( ( ( ( ` m S ! Q W b W ( ! n n ( ( ( ( ( ( ( ( ( x.",
"~ ( ( ( ( ( ( ( ( ( ( ( ( ( ( ( ( ( ( ( ( ( ( ( ( ( ( n.&X$ H.(.+ _.` ( ( ( ( ( ( ( ( ! l b ~ W x W ( S l W ( ( ( ( ( ( ( ( ( x.",
"` ( ( ( ( ( ( ( ( ( ( ( ( ( ( ( ( ( ( ( ( ( ( ( ( ( (  XJ e >X,Xd j XX( ( ( ( Q ( ( Q Q b b W W n W W b m ` Q ( ( ( ( ( Q ( ( x.",
"` ( ( ( ( ( ( ( ( ( ( ( ( ( ( ( ( ( ( ( ( ( ( ( ( ( ( _.@ `.,X,X@X% K.l.( ( ( ( ( ( ( Q L b W Q ( ( P b L ( ( ( ( ( ( ( ( ( ( x.",
"` ( ( ( ( ( ( ( ( ( ( ( ( ( ( ` ( ( ( ( ( ( ` ` ( ( {.g u :X,X,X,X3.3 =X( ( ( ( ( ( ( ( L k W Q Q Q L k L ( ( ( ( ( ( ( ( ( ( x.",
"` ( ( ( ( ( ( ( ( ( ( ( ( ( ( ( ( ( ( ( ( ( ( ( ( ].K.+ H.).@X,X,X:X* A. X( ( ( ( ( ( ( Q ! ( ( ( ` Q ` ( ( ( ( ( ( ( ( ( ( ( x.",
"` ( ( ( ( ( ( ` ( ( ( ( ( ( ( ( ( ( ( ( ( ( ( ( ( *Xr r `.`.:X,X1X,XI.* =XQ.( ( ` ( ( ( ( ( ` ( ( ` ( ( ( ( ( ( ( ( ( ( ( ( ( x.",
"` ( ( ( ( ( ( ( ` ( ( ( ( ( ( ( ( ( ( ( ( ( ( ( XXF.* R.`.`.,X,X1X1X,Xd J &X( ( ` ( ( ( ( ( ` ( ( ( ( ( ( ( ( ( ( ( ( ( ( ( ( x.",
"` ( ( ( ( ( ( ( ( ( ( ( ( ( ( ( ( ( ( ( ( ( ( l.=X% 3.&X`.@X,X1X1X1X3X+X@ +XQ.( ( ( ( ( ( ( ( ` ( ( ( ( ( ( ( ( ( ( ( ( ( ( ( x.",
"` ( ( ( ( ` ` ( ( ( ( ( ( ( ( ( ( ( ( ( ( ( ( -Xj 3 +X&X`.:X,X1X,X1X3X3XJ r *X( ( ( ( ( ( ( ( ` ( ( ( ( ( ( ( ( ( ( ( ( ( ( ( x.",
"( ( ( ( ( ( ` ( ( ( ( ( ( ( ( ( ( ( ( ( ( ( Q._.+ H.;X+X+X,X1X1X,X,X1X,X@X@ H.Q.( ( ( ( ( ( ( ( ( ( ( ( ( ( ( ( ( ( ( ( ( ( ( x.",
"( ( ( ( ( ( ( ( ( ( ` ( ( ( ( ( ( ( ( ( ( ( *Xd 3 +X;X;X+X1X1X1X1X1X,X%X>X2.q ~.( ( ( ( ` ` ( ( ( ( ( ( ( ( ( ( ( ( ( ( ( ( ( x.",
"` ( ( ( ( ( ( ( ( ( ( ( ( ( ` ( ( ( ( ( ( Q.F.o H.@X&X;X+X3X3X3X1X,X,X%X#X`.& 2.}.` ` ` ( ( ( ( ( ( ( ( ( ( ( ( ( ( ( ( ( ( ( x.",
"` ( ( ( ( ( ( ( ( ( ( ( ( ( ( ( ( ( ( ( n.&X% q R.&X;X).R.3X3X3X1X`.).#X#X'.1.& _.( ` ` ( ( ( ( ( ( ( ( ( ( ( ( ( ( ( ( ( ( Q ~ ",
"` ( ( ( ( ( ( ( ( ( ( ( ( ( ( ( ( ( ( ( XXF.o 9.9.0.u.y.y.+X3X3X;X^.^.;X@XP.e.& 2.{.( ( ( ( ( ( ( ( ( ( ( ( Q ( ( ( ( ( ( ( ( x.",
"` ( ( ( ( ( ( ( ( ( ( ( ( ( ( ( ( ( ( C.+X% [ u.y.y.y.y.y.9.:X:X/.P.^./.`.^.^.1.& !.Q.( ( ( ( ( ( ( ( ( ( W c W ( ( ( ( ( ( ( x.",
"` ( ( ( ( ( ( ( ( ( ( ( XX~.*X].( ( ( =XJ $ 9.y.y.y.y.8.5.5.R./.^.^.^.^././././.r r =X` ( ( ( ( [.*XXXn.( W c W ( ( ` ( ( ( ( x.",
"` ( ( ( ( ( F W ( ( ( [.A.o q ~.Q.( {.H.# 5.9.9.5.5.5.5.5.5.6.i.i.^.^.^.^././././.3 H.*X` ( ( {.L.@ d =XQ W x W ( ~ m ^ ( ( ( x.",
"` ( ( ( ( ( L L ( ( ` =X3 2.$.g *XJ.=X$ h 9.5.5.5.5.5.5.5.5.6.i.^.^.^.^.^././././.1.* =Xl.( [.(.@ I.r F.[.! x Q W S S W ( ( ( z.",
"` ( F F ( ( D L Q ( *X*.q !.OXr F.2Xg $ 5.5.5.5.5.5.5.5.5.5.6.i.^.^.^.^.^.^././././.e 3.=X&XOXr K.,XG.* =X! c W L B m ` ( ( ( x.",
"` ( W b m ` D L Q l.=X$ D.W.&X!.< 2.# [ y.,.5.5.r.r.5.5.r.5.6.i.^.^.^.^.^.^.^./././.q.+ (.@X2 2.@X,X,Xj 2.XXm ~ L C ( ( ( ( ( x.",
"` ( ( b C ( m L W *X2.r W.W.OXOXr # y 5.r.>.5.5.r.r.5.5.5.5.6.^.^.^.^.^.^.P.^././././.q d 3 3.@X%X1X,X(.2 +XW.W D S Q ( ( ( ( z.",
"` ( ( W c Q W W }._.$ D.W.W.~.~.F.= f >.-.-.5.r.5.5.5.r.5.6.u.i.^.^.^.^.^.^.^.^.^./.q.9.$ r +XoX%X<X,X,X3.d =X( W W ( ( ( ( ( x.",
"` ( ( Q m ( ( Q =Xj q T.V.W.W.W.R.>.5.,.>.-.5.5.5.5.5.5.5.q.^.^.^.^.^.^.i.i.e.P.P.^.q.8.f F.(.oX,X1X1X1X@X@ (..X( ( ( ( ( ( ( x.",
"` ( ( ( ( ( (  XK.o #.;.k.W.T.B.<.,.,.,.,.>.r.5.5.5.5.5.9.R.^.^.^.^.P.^.^.i.e.e.q.9.-.#.*.I.I.%X$X%X1X1X,X3.r =X( ( ( ( ( ( ( z.",
"` ( ( ( ( ( ( =Xr 0 ;.@.;.V.B.B.T.k.,.,.,.5.r.r.5.5.5.6.u.^.^.^.^.^.^.P.P.i.e.e.6.=.%.A H J.oXY.U.U.%X1X,X@X3 F. X( ( ( ( ( ( z.",
"` ( ( ( ( ( XXA.X #.@.@.@.;.B.B.B.<.>.,.-.-.5.5.5.5.5.q.^.^.^.^.^.^.^.P.^.i.e.q.=.%.B l l v I ' ' ' U.$X%XoXJ 2 OXn.( ( ( ( ` x.",
"` ( ( ( ( n.&X$ w @.@.@.@.@.N.B.B.B.T.>.%.*.7.8.8.5.5.9.^.^.^.^.^.P.^.^.^.^.q.>.;.p v z l b P ' / / / ] U.] U.> 2.=X( ( ( ( ( x.",
"` ( ( ( ( *XA.X } O.O.O.O.@.;.N.V.V.k.a.A K d.7.y.8.9.q.^.^.^.^.^.P.^.^.^.q.>.&.p.B B b v b ) ( ( ( ( ( ( ( / I @ (.W.( ( ( ( x.",
"` ( ( ( n.OXo w X.O.O.@.O.@.@.N.V.V.a.V C K n.k.8.8.q.^.^.^.^.^.^.^.^.^.q.>.;.p.C V b b l S ( ( ( T R R R ( ( I 9 d *X( ( ( ( x.",
"` ( ( ( *Xd O }  .O.@.@.@.@.@.N.k.a.B b n ) ' h.,.0.^.^.^.^.^.^.^.^.^.q.>.%.p.B b b z l l E ( R R R R R R T T ^ I   K.W.( ( ( x.",
"` ( ( Q.F.. w X.X.@.@.X.+.@.;.j.p.B v b D ' ' ' h.D.^.^.^.^.^.^.^.^.q.>.%.A v z z l l l b Q Y ( R R R R R R T ^ ) 8 r =X( ( ( x.",
"` ( ( &Xq 0 @. .X.X.X.o.+.+.o.Z B v v n ( ( ( ( _ S.H.^.^.^.^.^.^.q.,.&.A V l z z l l l m Q Y Y R R R R R R R U ^ I : A.[.( ( x.",
"` ( [.7.X { }  .X.o.o.o.o...Z B B v b W ( ( ( ( ( _ J.P.P.^.^.^.0.,.&.A V b b l z l l b E U Y Y R ( R R T R R T ^ ^ s 2 =X( ( x.",
"` ( ~.q ; }  .X.X...p p Z B B B v v ! W ( ( ( ( ( ) S.F.P.^.^.0.,.&.A B V V V z l l k k W Y Y R ( ( R R R R T T T ^ I > j *X( x.",
"` [.$.X }  . . ...i N l v v v v b b L W ( ( ( ( ( ( ' S.K.R.7.,.a.H C V V v b b z l l b W Y Y Y Y Y Y R R U R R R ( / I : (.Q.x.",
"M.~.o w | | | p i N l l v v v v v b ` ( ( ( ( ( ( ( ( _ S.&.&.a.H C C V b b b b v l l m Q Y Y Y Y Y Y U W Y Y R ( ( ( _ 9 a =Xx.",
"XX2.X ;.....p p B B v v v v v v v n ' ' ' ' ' ' ' / / ' I H a.H G C G G G G C C C B v P ^ ^ ^ ^ ^ ^ ^ ^ ^ ( ( ^ / ' ] U.S.@ OXM.",
"*Xr o 0 1 1 1 1 , - - - - - - - - , 5 5 8 8 5 5 8 5 5 5 4 , , 1 6 6 4 6 6 6 6 , , , , 4 7 7 7 7 7 7 4 4 4 4 4 5 7 8 8 8 9 @ K.Q.",
".X!.g.g.g.Z.d.f.f.s.h J f.J s.f.s.*.d.g.d.g.g.d.f.d.d.d.f.f.f.d.d.g.g.Z.Z.Z.2.2.g.g.f.g.2.2.2.2.Z.2.2.2.2.2.2.2.Z.Z.Z.2.2.A.*Xz.",
"` W.|.[.[.[.[.[.[.[.W.W.W.W.[.].}.}.|.|.[.|.|.|.|.|.|.|.|.}.|.|.|.|.|.|.|.|.|.|.|.|.|.|.|.|.|.|.|.|.|.|.|.|.|.|.|.|.|.|.[.|.].x.",
"` ( ( ( ( ( ( ( ( Q m b W Q ( ( m b ( ( ( ( ( ( ( ( ( ( ( ( ( ( ( ( ( ( ( ( ( ( ( ( ( ( ( ( ( ( ( ( ( ( ( m F ( ( ( ( ( ( ( ( x.",
"` ( ( ( ( ( ( ( ( ( D b ` ( ( ( m m ` ( ( ( ( ( ( ( ( ( ( ( ( ( ( ( ( ( ( ( ( ( ( ( ( ( ( ( ( ( ( ( ( ( ( m M ( ( ( Q ( ( ( ( x.",
"` ( ( ( ( ( ( ( ( ( ( W ( ( ( ( Q Q ( ( ( ( ( ( ( ( ( ( ( ( ( ( ( ( ( ( ( ( ( ( ( ( ( ( ( ( ( ( ( m F ( ( m M Q Q E F ( ( ( ( x.",
"` ( ( ( ( ( ( ( ( ( ( ( ( ( ( ( ( ( ( ( ( ( ( ( ( ( ( ( ( ( ( ( ( ( ( ( ( ( ( ( ( ( ( ( ( ( ( ( ( L b L ` m D Q F b E ( ( ( ` x.",
"` ( ( ( ( ( ( ( ( ( ( ( ( ( ( ` ( ( ( ( ( ( ( ( ( ( ( ( ( ( ( ( ( ( ( ( ( ( ( ( ( ( ( ( ( ( ( ( ( ` m b ` m L ` m m ( ( ( ( ( x.",
"` ( ( ( ( ( ( ( ( ( ( ( ( ( ( ( ( ( ( ( ( ( ( ( ( ( ( ( ( ( ( ( ( ( ( ( ( ( ( ( ( ( ( ( ( ( ( ( ( ( ! b ` ` ` Q c W ( ( ` ( ( x.",
"x.( ( ( ( ( ( ( ( ( ( ( ( ( ( ( ( ( ( ( ( ( ( ( ( ( ( ( ( ( ( ( ( ( ( ( ( ( ( ( ( ( ( ( ( ( ( ( ( ( ` L ` ` ` ` P ( ( ( ( ( ( x.",
"` ( ( ( ( ( ( ( ( ( ( ( ( ( ( ( ( ( ( ( ( ( ( ( ( ( ( ( ( ( ( ( ( ( ( ( ( ( ( ( ( ( ( ( ( ( ( ( ( ( ( ( ( ( ( ' ` ' ( ( ( ( ( ! ",
"` ( ( ( ( ( ( ( ( ( ( ( ( ( ( ( ( ( ( ( ( ( ( ( ( ( ( ( ( ( ( ( ( ( ( ( ( ( ( ( ( ( ( ( ( ( ( ( ( ( ( ( ( ( ( ( ( / / ( ( ( ( ! ",
"x.` ( ( ( ( ( ( ( ( ( ( ( ( ( ( ( ( ( ( ( ( ( ( ( ( ( ( ( ( ( ( ( ( ( ( ( ( ( ( ( ( ( ( ( ( Q ( ( ( ( ( ( ( ( ( ( ( ( ( ( ( ( x.",
"m.v.v.v.v.v.v.v.v.v.c.c.v.c.c.c.c.c.c.c.c.v.c.c.v.c.c.v.v.v.c.v.c.c.c.c.v.v.c.c.c.c.c.c.c.c.c.c.c.c.c.c.v.c.c.v.v.v.v.v.v.v.v.m."
};
