/* XPM */
static char *wall[] = {
/* columns rows colors chars-per-pixel */
"64 64 38 1 ",
"  c #472119",
". c #4C382C",
"X c #673426",
"o c #314E2B",
"O c #31482E",
"+ c #3F682C",
"@ c #6E5B2C",
"# c #7B4234",
"$ c #46752C",
"% c #695B58",
"& c #5C6E56",
"* c #8A442C",
"= c #A95C35",
"- c #53862C",
"; c #588E2B",
": c #629C2C",
"> c #659D2E",
", c #659D31",
"< c #66A22D",
"1 c #69A42F",
"2 c #66A231",
"3 c #6BA533",
"4 c #6EA934",
"5 c #6EA738",
"6 c #70A737",
"7 c #72AD36",
"8 c #73AE39",
"9 c #76B137",
"0 c #78B437",
"q c #7CB930",
"w c #76B039",
"e c #7DB539",
"r c #7EB83B",
"t c #7EB940",
"y c #80B73F",
"u c #80BA3D",
"i c #8FCC37",
"p c #80B940",
/* pixels */
"7eeeeeeeeee4eee7wee8w3e8weeeeeeeeww4e7weeeeeeeeewwweew4e4rrreeee",
"eeeeeew7e88w9ee8eeeew8e48eeeeeeewww4eeereeeeeeeee54wew448reeeeee",
"eeeeeee7778e3eeeeeeeeee44weee3weoooOoO&rrrew4eeew434wre4wrw8eeee",
"eeeeere943we7eeeeeeeeee44eeee3w&$$$$--+rree885w84244wrr4wtwwwwee",
"eeeeerree78eeeeooooeeee8eee+++++;>>>>>+o&O&833843554wrreeeer47ee",
"reeeeeeeeweeeeo-q>>$ooooooo;>>>>>>iiiq>;--$w33333ww8wreeeeee44ee",
"urre7weeeeeee&$;qqq>+o+$$$-;>>qqqiiiiii>>;-o43844eerteeeeeeeeew3",
"eure7eeeeeeee+>qiiiq>---;;;;>>qiiiiiiiiqq;;$o5eeeeeeeeeeeeeeee73",
"7re7eeeeeewew$qiiiiii;-;;;;;qiiiiiiiiqqqq;;-+Oerrereeeeeeeeeee74",
"8rrrreeeee6o+$qiiiiii;--;;>>iiiiiiiiiqqqq----+O&&&&&&reeeeteee7w",
"weerrreeee&+>>qiiiiii;--;>qiiiiiiiiiqqqqq-----++++++oreeee8eeeee",
"eeeerr88woo-qiiiiiqqq>>q;>qqiiiiiiiqqqqqq>>----;;;;;+&reee88ewee",
"eeeere88O$-qiiiiiiqqqqqq;qiiiiiiiiiqqqqqqq>---;;;;;;-$$+&ew8w8we",
"eeeeeee4O-;qiiiiiiqqqqqqqqqiiiiiiqqqqqqqqq>--;;;;;;;>>>-+oeew8ee",
"eeeeeee3O->qiiiiiqqqqqqqqqqqiiiiiqqqqqqqqq>--;;;;qqqqqq>$oeeeee8",
"8eeeee83O->qqiiiiqqqqqq>qqqiqqiiqqqqqqqq>q>-;;;;;qiiqqq>;++Oeerw",
"4w8eee83O-;;>qiqqqqqqqq>qqqqqqiiqqqqqqqq;q>-;;;;;+-qqqq>>++O8rrr",
"e548eeOOO-;;;>q>qqqqqq>>qqqqqqqqqqqqqqqq;;;;;qq;;#@;qqq>;-$Oetrr",
"r44w8e+--;;;;>q;>qqqq>>>>>qqqqqqqqqqqqq;;;;;qqq**###;>-;--$+otrt",
"e88wo+->>>;;-;;;>qqqq>>>>>>>>qqqqqq>>qq;;;;;iiq####XX+;-----orpr",
"reeO+$;>>iiq--->qqqq>q>>>>q;;>qq>>>->>;;;;>>iiq#****#+------orrr",
"eero--qqiiqq-;->qqq>>>>>>qq;;;q>---;;;;;;;qqqq>@=**X@$------oree",
"eeo+;;qqqqqq;;->qqqq>>>;>qq;;;;;--;;;;;;;;qqqqq-**#@$;------otee",
"re+;;;qqqqqq;;;>qqqqqi>;;>>;;;------;;;;;;qqqqqqXX@------;--o8ee",
"er+;;;qqqqqq-;;;>q;>qq>;;;;;;;-----;-;;;;;qqqqqqqq>;;->>---oo7e7",
"rr+;;;>>qq>-;;;;;;-;>>;;;;;;;;;;-------;;;;;>qqqqqq;;qq>---ooer4",
"ro+;;;-;>q>>;;;;;@-;;-;;;;;;;;;;;-------;;;;>qqqqqq-;qq>;;;$++Ow",
"O+$;;;;>qqq>;;--$#@@-;;;;;;;;;;;--------;;;;;;qq;;;>>qqqq>;-$+Oe",
"O$$;;;;>qqq>;;+##XXX@----;;;;;;;-$-------;;;;;>>-;;qqqqqq>;;-$oe",
"O-;;;;;>qqq>;-@XXXX#X$-;-;;;;;;-$$----$$$-;;;;;;;;;qqqqqq>;;-$o&",
"O-;;;;;;;;;;;-.***=*X$--;-$$$---++$$$$++$$;;;;;;;;;;>qqq>>;;--$O",
"O+$-;;;;;;;;--$##*=*X$$-;$$$$$$$oOo++++O+$----;;;;;;>qqq--;---$O",
"O++$-;;;;;;;---@#**@+$$$$$$$$$$$O..ooooo+$----;;;;;;;;;;-----$+O",
"oo+$$-;;;;------$@@+$$$$$$+o$$$+.**Ooooo+$-----;;;;;;;;----$$oOO",
"8&o$$$$-;-----------$$$$+ooooooo.**.oooo+$$$$$---;-;;-----$ooerr",
"wee++$$$$-----------$$++oooOXXXX#**.ooooo+$$$$---;-$$$$$$oooOrrr",
"eeeoo+$$$$$$$$$$$$$$$$oOoooO*##****.ooooOo++++$-----$++++ooOOwre",
"ereooO$$$$$$$$$$$$$$$oOOooO.*#X****.OoOOOOOOoo$$$$-$+ooooooOO9ee",
"eewwOOoooo+$$$$$ooooo.X.OOO.*##****.ooOOX*#.Oo+$$$$+ooooooor:0ee",
"ee88eOooOOo$$$$ooooOX**#XX..##*****.OOX#**X.Ooooooooooooooo430ee",
"8eww9OOOOoo++++ooooo.X***XXX#******...***#.OOoooooooooooooo3eeee",
"3eee9&OOooooooooooooO.X*****************X.ooooooooooooooooo300ee",
"3we931&OOoooooooooOoOO.X#*************#X.Ooooooooooooooooo<7934e",
"3wee9<4&OooooooooOOOOOO.X#***********XXOOoooooooooooooooO9309371",
"4eeew349OOOoooooOOOOOOOO.X*==*=====** OOooooooooooooooooe770<391",
"9eeeewwwwww&oOooOOOOOOoO.X*==*=====** OOoooooooooooooOOeee793994",
"weeeeeeewwwwwOOOOOOOOOoo.X*==*===*=** OOoooooooooooOOeeeeee77747",
"eeeeeeee7w7weOOOOOOOOOOO.X*==*=====** OOooooooooooOOOeeeeeeee77e",
"eeeeeeeeww4wr4ewOOOOOOOo. *==*==*==** OOO&83oooooeew7weeeeetppry",
"eeeeeeeeeewee4w84OOOO&5we *==*==*==** &ee74w&&&&eww848eeeeerppee",
"ee9weeeeeerrrww8eee&&84wr *=====*==** eeee8eeeeee8w847eeeeerpp8e",
"ee77e4weeeeereeeeeeee84 X**=====*==**## eeeeeeeeteewweeeeeee7err",
"eeeer7eeeeeeeeere8wee58 ***=====*==*=** eeeeteteteeeeeeeeeee47wr",
"eeee74eeeeeeweeee7weeww ***=====*==*=** eeeeeteetw8eeeeeeeewee4r",
"e3ee949weee44ew738eeeee **==*===*==*=**Xeeeeerwweeeeeeeeee74e94e",
"e4eee744eee44ww<37eeeeeX**==*===*=**==*X eeerrwwreeeeeeeee73e37r",
"reeeee74eee4444237eeeeXX*===*===*=**==**Xeeeeeeeere47eeeee74e3rw",
"reeeeew79e4ew2w947ere%#*===**===*=**====X%reeeeeee83473eew8ee3r8",
"eeeeeeew4r4ew3ewwwee%*====***===*=***====*%eeeeee4w8438eeweee7ee",
"eeeeeeee74wee9eeeee#*=====*XX##XXXXX*====**%weeee4ww448eeeeeerer",
"eeeeeeee94wee9eeee.**=====*#%%%%%%%%#*=====*.7wwe77w838eeeeeeerr",
"eeeeeeeeew4ee4rrre%        eee23weee%       .7w48e48eeeeeeeeeetr",
"eeeeewweeeerreerreww34ee97eeeeeeeeee78ee84e94ew48e48eeeeeee88eer",
"eree847eeeerrerree45w3w74reeeeeeeee74wrrewew7ew48eweeerrree3,eee"
};
